<svg width="63" height="72" viewBox="0 0 63 72" fill="none" xmlns="http://www.w3.org/2000/svg">
<g filter="url(#filter0_dii)">
<path d="M58.205 30.0762L58.2131 31.9648C58.2131 39.8135 57.7535 46.969 57.0611 51.6336L56.4546 54.5342C56.1172 56.0705 55.6735 57.8197 55.211 58.7127C53.5179 61.9791 50.2074 64 46.6642 64L46.3558 64C44.046 63.9236 39.1937 61.8968 39.1937 61.8263C31.3858 58.5502 16.3224 48.6628 9.3653 41.6139L7.3436 39.4977C6.81419 38.9241 6.21939 38.2453 5.85014 37.7162C4.6167 36.083 3.99998 34.062 3.99998 32.0411C3.99998 29.7852 4.69234 27.6879 6.00141 25.9725L8.07853 23.7308V23.7308L8.54393 23.2524C14.8566 16.4083 31.3393 5.21681 39.9617 1.79181L41.2635 1.29291C42.8301 0.731408 45.0249 0.0616823 46.3558 -2.94395e-06C48.0489 -2.79593e-06 49.6663 0.393607 51.2081 1.16908C53.1339 2.25592 54.6699 3.97136 55.5194 5.99229C56.0604 7.39049 56.9099 11.591 56.9099 11.6673C57.6886 15.9026 58.1402 22.5857 58.205 30.0762Z" fill="#FFC567"/>
</g>
<defs>
<filter id="filter0_dii" x="0" y="0" width="62.2132" height="72" filterUnits="userSpaceOnUse" color-interpolation-filters="sRGB">
<feFlood flood-opacity="0" result="BackgroundImageFix"/>
<feColorMatrix in="SourceAlpha" type="matrix" values="0 0 0 0 0 0 0 0 0 0 0 0 0 0 0 0 0 0 127 0"/>
<feOffset dy="4"/>
<feGaussianBlur stdDeviation="2"/>
<feColorMatrix type="matrix" values="0 0 0 0 0 0 0 0 0 0 0 0 0 0 0 0 0 0 0.25 0"/>
<feBlend mode="normal" in2="BackgroundImageFix" result="effect1_dropShadow"/>
<feBlend mode="normal" in="SourceGraphic" in2="effect1_dropShadow" result="shape"/>
<feColorMatrix in="SourceAlpha" type="matrix" values="0 0 0 0 0 0 0 0 0 0 0 0 0 0 0 0 0 0 127 0" result="hardAlpha"/>
<feOffset dy="4"/>
<feGaussianBlur stdDeviation="2"/>
<feComposite in2="hardAlpha" operator="arithmetic" k2="-1" k3="1"/>
<feColorMatrix type="matrix" values="0 0 0 0 1 0 0 0 0 1 0 0 0 0 1 0 0 0 0.4 0"/>
<feBlend mode="normal" in2="shape" result="effect2_innerShadow"/>
<feColorMatrix in="SourceAlpha" type="matrix" values="0 0 0 0 0 0 0 0 0 0 0 0 0 0 0 0 0 0 127 0" result="hardAlpha"/>
<feOffset dx="9" dy="12"/>
<feGaussianBlur stdDeviation="2"/>
<feComposite in2="hardAlpha" operator="arithmetic" k2="-1" k3="1"/>
<feColorMatrix type="matrix" values="0 0 0 0 1 0 0 0 0 1 0 0 0 0 1 0 0 0 0.25 0"/>
<feBlend mode="normal" in2="effect2_innerShadow" result="effect3_innerShadow"/>
</filter>
</defs>
</svg>
