<svg width="1193" height="792" viewBox="0 0 1193 792" fill="none" xmlns="http://www.w3.org/2000/svg">
<g opacity="0.15">
<path d="M1055.95 55.6709L1054.05 53.8708L1072.45 34.0708L1086.85 54.0708L1084.65 55.5708L1072.25 38.3708L1055.95 55.6709Z" fill="#372EB4"/>
<path d="M1128.75 140.671H1007.25C1006.55 140.671 1005.95 140.071 1005.95 139.371V54.271C1005.95 53.571 1006.55 52.9709 1007.25 52.9709H1128.75C1129.45 52.9709 1130.05 53.571 1130.05 54.271V139.471C1130.05 140.071 1129.45 140.671 1128.75 140.671Z" fill="#201979"/>
<path d="M1112.55 127.871H1023.45C1022.85 127.871 1022.45 127.371 1022.45 126.871V66.8708C1022.45 66.2708 1022.95 65.8708 1023.45 65.8708H1112.55C1113.15 65.8708 1113.55 66.3708 1113.55 66.8708V126.871C1113.55 127.371 1113.05 127.871 1112.55 127.871Z" fill="#766EDB"/>
<path d="M1027.72 96.8711C1027.72 104.904 1034.23 111.416 1042.26 111.416V82.3262C1034.23 82.3262 1027.72 88.8382 1027.72 96.8711Z" fill="#372EB4"/>
<path d="M1044.88 96.8711C1044.88 104.904 1051.39 111.416 1059.42 111.416V82.3262C1051.39 82.3262 1044.88 88.8382 1044.88 96.8711Z" fill="#372EB4"/>
<path d="M1062.03 96.8711C1062.03 104.904 1068.55 111.416 1076.58 111.416V82.3262C1068.55 82.3262 1062.03 88.8382 1062.03 96.8711Z" fill="#372EB4"/>
<path d="M1079.19 96.8711C1079.19 104.904 1085.71 111.416 1093.74 111.416V82.3262C1085.71 82.3262 1079.19 88.8382 1079.19 96.8711Z" fill="#170358"/>
<path d="M1108.28 96.8711C1108.28 104.904 1101.77 111.416 1093.74 111.416V82.3262C1101.77 82.3262 1108.28 88.8382 1108.28 96.8711Z" fill="#372EB4"/>
<path d="M1071.65 41.8709C1071.35 41.8709 1070.95 41.7709 1070.65 41.3709C1070.15 40.8709 1070.35 40.0709 1070.85 39.6709L1080.65 31.7709C1081.15 31.3709 1081.95 31.4708 1082.35 31.9708C1082.85 32.4708 1082.65 33.2709 1082.15 33.6709L1072.35 41.5708C1072.25 41.7708 1071.95 41.8709 1071.65 41.8709Z" fill="#201979"/>
<path d="M1084.99 36.0418C1086.44 35.0316 1086.41 32.4862 1084.92 30.3564C1083.44 28.2266 1081.06 27.3189 1079.61 28.3291C1078.16 29.3393 1078.19 31.8848 1079.67 34.0146C1081.16 36.1444 1083.54 37.052 1084.99 36.0418Z" fill="#201979"/>
<path d="M911.246 124.737L909.688 123.261L924.781 107.019L936.594 123.425L934.789 124.655L924.617 110.546L911.246 124.737Z" fill="#372EB4"/>
<path d="M970.966 194.464H871.299C870.725 194.464 870.232 193.971 870.232 193.397V123.589C870.232 123.015 870.725 122.522 871.299 122.522H970.966C971.54 122.522 972.033 123.015 972.033 123.589V193.479C972.033 193.971 971.54 194.464 970.966 194.464Z" fill="#201979"/>
<path d="M957.676 183.964H884.587C884.095 183.964 883.767 183.553 883.767 183.143V133.925C883.767 133.433 884.177 133.104 884.587 133.104H957.676C958.168 133.104 958.497 133.515 958.497 133.925V183.143C958.497 183.553 958.086 183.964 957.676 183.964Z" fill="#766EDB"/>
<path d="M924.6 112.192C924.3 112.192 923.9 112.092 923.6 111.692C923.1 111.192 923.3 110.392 923.8 109.992L933.6 102.092C934.1 101.692 934.9 101.792 935.3 102.292C935.8 102.792 935.6 103.592 935.1 103.992L925.3 111.892C925.2 112.092 924.9 112.192 924.6 112.192Z" fill="#201979"/>
<path d="M937.935 106.363C939.385 105.353 939.358 102.808 937.874 100.678C936.39 98.5479 934.012 97.6402 932.562 98.6504C931.112 99.6606 931.139 102.206 932.623 104.336C934.107 106.466 936.485 107.373 937.935 106.363Z" fill="#201979"/>
<path d="M126.325 568.644C126.099 565.604 104.932 563.183 78.8662 563.183C52.7445 563.183 31.5771 565.604 31.4082 568.644V568.701C31.5208 571.741 52.7446 574.218 78.9226 574.218C105.101 574.218 126.324 571.741 126.437 568.701C126.381 568.701 126.325 568.644 126.325 568.644ZM78.8662 573.373C56.7979 573.373 38.8955 571.29 38.8392 568.757C38.8392 568.757 38.8392 568.757 38.8392 568.701C39.0081 566.167 56.8542 564.084 78.8662 564.084C100.878 564.084 118.724 566.167 118.893 568.701C118.893 568.701 118.893 568.7 118.893 568.757C118.837 571.234 100.935 573.317 78.8662 573.373Z" fill="#372EB4"/>
<path d="M78.8671 573.317C100.935 573.317 118.838 571.234 118.951 568.701C118.951 568.701 118.951 568.701 118.951 568.644C118.782 566.111 100.879 564.028 78.9235 564.028C56.9115 564.028 39.0654 566.111 38.8965 568.644C38.8965 568.644 38.8965 568.644 38.8965 568.701C38.8965 571.234 56.7988 573.317 78.8671 573.317Z" fill="#BA9C7E" fill-opacity="0.2"/>
<path d="M81.1192 573.88C79.4865 550.123 76.2777 526.422 71.6051 503.059C66.9324 479.752 60.7399 456.727 53.1399 434.264C48.8613 421.541 44.0759 409.043 38.8403 396.658C38.6151 396.264 38.2211 395.926 37.7707 395.814C37.3203 395.701 36.8137 395.757 36.4196 395.983C36.0255 396.264 35.7441 396.658 35.6315 397.109C35.5189 397.559 35.5751 398.066 35.8003 398.46C44.9767 420.19 52.7458 442.54 59.051 465.284C65.2999 487.915 70.1412 510.941 73.4627 534.191C75.3205 547.365 76.7282 560.594 77.6289 573.88C77.6852 576.132 81.288 576.188 81.1192 573.88Z" fill="#201979"/>
<path d="M93.3346 578.384C92.0398 541.172 93.616 503.904 98.0634 466.917C99.302 456.558 100.766 446.256 102.454 435.954C102.849 433.702 99.3584 432.745 99.0206 434.997C92.9406 471.871 89.7315 509.196 89.3375 546.633C89.2249 557.217 89.3939 567.801 89.7316 578.384C89.8442 580.692 93.3909 580.692 93.3346 578.384Z" fill="#201979"/>
<path d="M72.4501 581.705C67.0456 551.868 55.2232 523.551 37.7713 498.724C32.8734 491.743 27.5817 485.1 21.8394 478.851C20.2631 477.162 17.786 479.695 19.306 481.384C39.2914 503.565 54.2098 529.799 63.0484 558.342C65.5255 566.336 67.4959 574.443 68.9596 582.662C69.41 584.914 72.8442 583.957 72.4501 581.705Z" fill="#201979"/>
<path d="M40.4197 549.447L31.7501 545.225L24.2061 541.678C19.7587 539.539 16.5499 537.793 16.4373 536.33C16.381 535.035 19.4774 532.727 25.276 531.657C26.0078 531.545 26.7397 531.432 27.5278 531.319C28.316 531.207 29.1604 531.207 30.0048 531.207C31.8063 531.15 33.664 531.263 35.4655 531.488C39.6314 532.051 43.6286 533.29 47.4005 535.091C51.1723 536.949 54.5501 539.426 57.4775 542.41C58.7724 543.705 59.8984 545.112 60.968 546.632C61.4747 547.364 61.925 547.983 62.3191 548.715C62.7695 549.391 63.1073 550.066 63.445 550.742C66.091 556.034 66.1472 559.918 65.3027 560.425C64.2331 561.213 60.8554 559.693 56.4079 557.497L48.9767 553.725L40.4197 549.447Z" fill="#201979"/>
<path d="M14.8576 482.735C10.5228 475.36 7.37015 467.31 5.56866 458.978C4.27383 452.391 4.61139 448 5.90622 447.437C7.14474 446.874 10.5226 449.745 14.6886 454.643C19.8679 460.948 24.5406 467.647 28.6503 474.741C32.76 481.778 36.2504 489.209 39.0652 496.922C41.2608 503.058 42.0488 507.337 41.2044 507.956C40.191 508.744 36.194 506.83 31.071 502.495C24.5968 496.809 19.1362 490.166 14.8576 482.735Z" fill="#372EB4"/>
<path d="M44.5817 503.903C41.2039 483.862 44.0188 466.86 46.89 466.466C49.7048 466.072 57.0233 481.497 60.3448 501.258C63.6663 521.018 60.9641 538.132 58.9374 538.526C56.404 539.033 47.9032 523.945 44.5817 503.903Z" fill="#766EDB"/>
<path d="M29.1011 395.701C26.0048 386.525 24.0907 376.954 23.4714 367.271C23.0773 359.728 23.8656 354.83 25.273 354.492C26.6241 354.098 29.6639 358.039 33.2106 364.513C37.6581 372.901 41.3738 381.627 44.3012 390.634C47.2849 399.642 49.4805 408.875 50.8317 418.276C51.7887 425.651 51.7323 430.549 50.7753 430.999C49.5931 431.506 45.9901 428.072 41.7678 421.823C36.3633 413.716 32.1411 404.934 29.1011 395.701Z" fill="#766EDB"/>
<path d="M52.1259 424.356C51.3378 405.271 55.4474 389.452 58.3186 389.283C61.1897 389.058 67.2699 404.371 68.0581 423.737C68.8462 443.103 63.1601 458.866 61.1334 458.866C58.5438 458.866 52.9141 443.497 52.1259 424.356Z" fill="#201979"/>
<path d="M37.0406 452.617C32.8747 449.126 29.2717 444.96 26.4006 440.4C24.0924 436.629 23.1352 433.532 23.9797 432.35C24.8241 431.168 28.0331 431.112 32.4805 432.35C37.9413 433.983 43.0643 436.797 47.3992 440.513C51.734 444.285 55.2245 448.958 57.5889 454.193C59.4467 458.415 59.7845 461.681 59.0527 462.413C58.0956 463.37 54.8867 462.863 50.8333 461.174C45.8229 459.035 41.1503 456.164 37.0406 452.617Z" fill="#372EB4"/>
<path d="M76.5597 530.588C74.1952 524.339 72.3939 517.921 71.0991 511.335C70.142 506.043 70.142 502.271 71.3806 501.483C72.6191 500.751 75.9968 502.552 79.9938 506.606C85.0606 511.898 88.945 518.147 91.4783 525.015C94.0117 531.883 95.0813 539.202 94.5746 546.52C94.1243 552.206 92.717 555.809 91.6474 555.922C90.3526 556.147 87.8754 553.276 85.0606 548.659C81.739 542.917 78.8679 536.893 76.5597 530.588Z" fill="#201979"/>
<path d="M91.1387 523.72C93.2217 516.289 96.4306 509.195 100.709 502.777C104.143 497.767 107.24 495.121 108.591 495.571C109.942 496.078 110.505 500.075 110.223 505.986C109.773 513.474 108.534 520.849 106.451 528.055C104.425 535.261 101.554 542.241 97.8379 548.772C94.9105 553.951 92.2644 557.047 91.2511 556.822C90.0126 556.541 88.7178 552.656 88.4363 546.576C88.0985 538.92 88.9994 531.151 91.1387 523.72Z" fill="#766EDB"/>
<path d="M77.517 448.563C72.9007 432.125 73.6326 417.431 76.3911 416.53C79.1497 415.573 88.2133 427.565 92.8859 444.228C97.5586 460.948 95.2505 475.98 93.2801 476.486C90.7468 477.049 82.1897 464.946 77.517 448.563Z" fill="#201979"/>
<path d="M93.671 415.687C94.7969 406.511 97.105 397.447 100.595 388.89C103.41 382.247 106.112 378.362 107.576 378.588C110.278 379.15 112.136 396.884 109.547 417.714C108.421 426.721 106.394 435.616 103.467 444.229C101.158 450.985 98.8503 455.151 97.8369 455.095C96.5421 454.982 94.8531 450.535 93.7834 443.385C92.4886 434.152 92.4888 424.863 93.671 415.687Z" fill="#201979"/>
<path d="M78.8662 574.217C104.65 574.217 125.593 571.853 126.325 568.869L122.553 613.85C122.553 635.187 102.905 652.639 78.8662 652.639C54.8275 652.639 35.1799 635.187 35.1799 613.85L31.4082 568.813C31.9149 571.797 52.9697 574.217 78.8662 574.217Z" fill="#201979"/>
<path d="M124.692 588.123C121.426 588.235 118.33 589.587 116.022 591.895C111.124 596.624 108.14 603.886 104.143 609.403C102.68 606.419 101.329 603.379 100.203 600.227C98.7952 596.455 93.7849 593.021 89.8441 596.004C85.7907 599.157 82.3567 603.041 79.8234 607.489C77.4589 611.43 75.5448 616.102 71.9419 619.03C68.2826 621.957 64.3981 622.689 62.9907 617.679C61.6959 613.231 62.1463 608.446 60.7389 604.055C59.5566 600.339 57.6424 596.511 53.8706 594.878C49.3668 592.964 45.0882 595.329 41.0911 597.355C38.7266 598.538 36.3622 599.833 34.1104 601.184L34.8985 610.698C38.9518 608.164 43.9622 605.068 48.1282 604.449C50.7741 604.055 50.6053 605.856 50.7742 608.333C50.9431 610.585 50.9431 612.781 51.0557 615.033C51.2809 619.536 52.0127 624.096 54.6023 627.868C60.2883 635.919 71.041 635.525 78.5848 630.402C82.4692 627.643 85.7345 624.096 88.2115 619.987C89.056 618.692 89.8441 617.228 90.6885 615.821C93.9538 623.365 98.8516 630.12 107.071 627.249C112.194 625.504 115.459 619.93 118.499 615.821C119.456 614.526 121.145 611.43 122.89 608.615L124.692 588.123Z" fill="#EBDBCD" fill-opacity="0.2"/>
<path d="M68.676 473.504C70.5338 463.933 73.5175 454.644 77.6835 445.862C81.005 439.05 84.1015 435.165 85.4526 435.503C88.0985 436.235 88.6052 454.926 84.3267 476.6C83.257 482.061 81.9621 487.184 80.5547 491.8C79.2035 496.416 77.74 500.301 76.783 503.566C75.8259 506.831 75.1503 509.533 74.7562 511.56C74.3058 513.587 74.0242 514.882 73.5176 515.051C73.0109 515.219 71.716 514.488 70.3649 512.461C68.676 509.59 67.4938 506.437 67.0435 503.172C66.3679 498.612 66.1991 493.939 66.5932 489.323C66.931 484.031 67.6064 478.739 68.676 473.504Z" fill="#766EDB"/>
<path d="M126.268 568.307H118.837C118.893 568.419 118.95 568.532 118.95 568.644C118.95 568.644 118.95 568.644 118.95 568.701C118.893 571.29 100.991 573.317 78.9226 573.317C56.8543 573.317 38.9518 571.234 38.8392 568.701C38.8392 568.701 38.8392 568.701 38.8392 568.644C38.8392 568.532 38.8957 568.419 39.0083 568.307H31.577C31.5207 568.419 31.4645 568.532 31.4082 568.644V568.701C31.5208 571.741 52.7446 574.218 78.9226 574.218C105.101 574.218 126.324 571.741 126.437 568.701V568.644C126.381 568.532 126.324 568.419 126.268 568.307Z" fill="#372EB4"/>
<path d="M96.5453 464.27C99.3602 457.402 103.301 451.04 108.199 445.523C112.14 441.245 115.517 439.218 116.812 439.893C118.051 440.569 118.163 444.453 117.263 450.027C116.024 457.008 114.054 463.82 111.295 470.406C109.831 473.953 108.086 477.443 106.228 480.765C104.652 483.523 102.907 486.226 101.049 488.815C99.4728 490.898 98.2905 492.587 97.3898 493.882C96.489 495.177 95.8699 496.134 95.307 496.19C94.8003 496.246 93.6742 495.458 92.886 493.713C91.929 491.292 91.5351 488.646 91.704 486C91.8166 482.623 92.2669 479.188 92.9987 475.867C93.8432 471.87 95.0253 467.985 96.5453 464.27Z" fill="#372EB4"/>
</g>
</svg>
