<svg width="1194" height="834" viewBox="0 0 1194 834" fill="none" xmlns="http://www.w3.org/2000/svg">
<g clip-path="url(#clip0)">
<path d="M287.403 160C413.866 86.0004 424.387 35.3932 413.866 -1.52179L-85.4318 -104C-117.798 52.3293 -106.339 355.945 -18.8588 418.551C68.4029 481 192.902 389 216.044 321.585C226.694 290.559 236.929 192.619 287.403 160Z" fill="#372EB4"/>
<g opacity="0.5">
<path d="M160.672 130.222C160.672 130.222 154.368 115.787 153.537 115.983L46.1377 146.668L160.672 130.222Z" fill="#201979"/>
<path d="M161.401 87.4799L69.9549 131.91L140.967 78.9035L118.729 69.6106L46.1384 146.668L198.687 103.06L161.401 87.4799Z" fill="#766EDB"/>
<path d="M143.948 95.9252L140.828 78.8758L69.8157 131.883L143.948 95.9252Z" fill="#201979"/>
</g>
<path opacity="0.5" d="M330.436 212.666C330.464 212.888 330.436 213.027 330.324 213.221L329.491 215.578C327.464 221.013 325.381 226.726 323.048 232.604C322.937 232.798 322.826 232.992 322.715 233.186C322.548 233.297 322.299 233.463 322.132 233.574C321.966 233.685 321.744 233.713 321.522 233.74C321.3 233.768 321.023 233.712 320.829 233.601C320.635 233.49 320.44 233.379 320.246 233.268C320.135 233.102 320.024 232.935 319.858 232.686C319.747 232.519 319.72 232.297 319.776 232.02C319.748 231.798 319.859 231.604 319.915 231.327C322.248 225.448 324.386 219.819 326.413 214.384L327.247 212.027C327.358 211.833 327.469 211.639 327.58 211.445C327.691 211.25 327.857 211.14 328.163 211.056C328.329 210.946 328.551 210.918 328.773 210.891C328.995 210.863 329.272 210.919 329.466 211.03C329.799 211.169 330.048 211.363 330.27 211.696C330.353 212.001 330.492 212.389 330.436 212.666ZM314.607 250.96C314.634 251.182 314.579 251.459 314.385 251.709C311.247 258.003 307.666 263.992 303.78 269.704C303.669 269.898 303.475 270.147 303.308 270.258C303.142 270.368 302.892 270.535 302.67 270.562C302.448 270.59 302.226 270.618 301.949 270.562C301.672 270.507 301.478 270.395 301.284 270.284C301.09 270.173 300.979 270.007 300.812 269.757C300.702 269.591 300.619 269.286 300.591 269.064C300.563 268.842 300.536 268.62 300.591 268.342C300.647 268.065 300.758 267.871 300.925 267.76C304.783 262.188 308.28 256.254 311.307 250.154C311.418 249.96 311.529 249.766 311.695 249.655C311.862 249.544 312.111 249.378 312.333 249.35C312.555 249.323 312.777 249.295 312.999 249.267C313.221 249.24 313.415 249.351 313.609 249.462C313.942 249.601 314.108 249.851 314.274 250.1C314.496 250.433 314.579 250.739 314.607 250.96ZM291.014 284.812C291.042 285.034 290.986 285.312 290.875 285.506C290.764 285.7 290.653 285.894 290.542 286.088C285.575 291.078 280.136 295.54 274.31 299.42C273.894 299.697 273.45 299.752 273.034 299.669C272.618 299.585 272.174 299.28 271.953 298.947C271.842 298.78 271.731 298.614 271.648 298.309C271.62 298.087 271.593 297.865 271.704 297.671C271.76 297.394 271.87 297.2 271.981 297.005C272.092 296.811 272.259 296.701 272.509 296.534C278.169 292.765 283.496 288.497 288.214 283.674C288.408 283.424 288.796 283.285 289.101 283.202C289.406 283.119 289.767 283.12 290.1 283.258C290.432 283.397 290.682 283.592 290.848 283.841C290.792 284.119 290.931 284.507 291.014 284.812ZM256.5 307.314C256.5 307.675 256.361 308.008 256.166 308.258C255.972 308.507 255.695 308.812 255.389 308.895C248.815 311.471 241.964 313.27 235.057 314.265C234.835 314.293 234.613 314.32 234.336 314.264C234.142 314.153 233.865 314.098 233.754 313.932C233.643 313.765 233.449 313.654 233.282 313.404C233.172 313.238 233.144 313.016 233.116 312.794C233.089 312.572 233.061 312.35 233.172 312.156C233.228 311.879 233.339 311.685 233.505 311.574C233.616 311.38 233.783 311.269 234.032 311.103C234.199 310.992 234.504 310.909 234.726 310.881C241.411 309.914 248.04 308.142 254.365 305.733C254.753 305.594 255.253 305.622 255.669 305.706C256.057 305.928 256.362 306.205 256.556 306.677C256.528 306.815 256.555 307.037 256.5 307.314Z" fill="#170358"/>
<g opacity="0.5">
<path d="M330.761 196.045C330.649 195.88 330.646 195.519 330.616 195.298C330.734 192.801 330.908 190.386 330.999 188.028C331.182 183.311 331.229 178.928 331.166 174.741C331.136 174.519 331.19 174.242 331.243 173.964C331.352 173.769 331.405 173.491 331.571 173.378C331.68 173.183 331.929 173.015 332.15 172.985C332.316 172.873 332.62 172.787 332.842 172.758C333.063 172.728 333.341 172.781 333.536 172.891C333.731 173 333.926 173.109 334.177 173.301C334.29 173.466 334.458 173.715 334.571 173.88C334.6 174.102 334.686 174.406 334.659 174.545C334.778 178.816 334.705 183.337 334.523 188.054C334.405 190.551 334.23 192.966 334.139 195.324C334.059 195.741 333.923 196.075 333.648 196.382C333.374 196.689 332.987 196.831 332.626 196.834C332.183 196.893 331.849 196.758 331.515 196.622C331.154 196.625 330.847 196.35 330.761 196.045ZM299.745 101.918C299.603 101.531 299.6 101.171 299.736 100.837C299.872 100.503 300.008 100.169 300.339 99.9442C300.669 99.7195 301.057 99.5775 301.334 99.6306C301.695 99.6276 302.112 99.7075 302.363 99.8995C308.112 104.095 313.201 109.101 317.437 114.807C317.718 115.22 317.86 115.608 317.697 116.08C317.674 116.58 317.455 116.97 317.041 117.251C316.627 117.531 316.24 117.674 315.823 117.594C315.324 117.57 314.878 117.269 314.653 116.938C310.642 111.563 305.804 106.749 300.362 102.828C300.138 102.498 299.887 102.305 299.745 101.918ZM329.447 154.757C329.39 154.674 329.361 154.453 329.304 154.37C328.278 147.695 326.504 141.163 324.121 134.804C324.009 134.639 323.979 134.417 324.033 134.14C324.003 133.918 324.112 133.722 324.221 133.527C324.331 133.332 324.44 133.137 324.55 132.942C324.715 132.83 324.963 132.661 325.129 132.549C325.516 132.407 326.015 132.431 326.405 132.649C326.796 132.868 327.103 133.143 327.301 133.613C329.713 140.194 331.573 147.029 332.629 153.927C332.688 154.37 332.609 154.787 332.334 155.094C332.115 155.484 331.784 155.708 331.397 155.85C331.01 155.992 330.51 155.969 330.203 155.694C329.813 155.476 329.588 155.144 329.447 154.757Z" fill="#170358"/>
<path d="M282.197 88.3571C282.001 88.3943 281.668 88.2538 281.453 88.1928C279.209 87.0909 277.064 85.9704 274.936 84.9481C270.682 82.9036 266.68 81.1167 262.813 79.5077C262.598 79.4466 262.364 79.2872 262.131 79.1279C261.995 78.95 261.761 78.7906 261.724 78.5941C261.589 78.4162 261.533 78.1212 261.594 77.9061C261.557 77.7096 261.599 77.3965 261.66 77.1814C261.722 76.9663 261.881 76.7326 262.059 76.5971C262.237 76.4617 262.414 76.326 262.69 76.1719C262.887 76.1348 263.182 76.0789 263.378 76.0417C263.594 76.1028 263.907 76.1455 264.024 76.2252C267.989 77.8156 272.108 79.6819 276.362 81.7264C278.606 82.8283 280.752 83.9493 282.879 84.9715C283.23 85.2105 283.482 85.4681 283.655 85.8425C283.827 86.2169 283.803 86.6282 283.663 86.9601C283.54 87.3904 283.283 87.6429 283.025 87.8952C282.885 88.2272 282.51 88.3996 282.197 88.3571ZM183.501 79.3539C183.089 79.3301 182.757 79.1892 182.505 78.9317C182.253 78.6741 182.001 78.4165 181.926 78.0235C181.852 77.6304 181.876 77.2189 182.035 76.9852C182.176 76.6532 182.415 76.3024 182.691 76.1483C188.828 72.5443 195.445 69.8669 202.366 68.2518C202.857 68.1588 203.269 68.1827 203.638 68.5199C204.087 68.7403 204.357 69.0964 204.45 69.5877C204.543 70.079 204.519 70.4907 204.28 70.8413C204.06 71.2901 203.606 71.5792 203.213 71.6535C196.686 73.1943 190.344 75.7179 184.582 79.1494C184.189 79.2237 183.913 79.3778 183.501 79.3539ZM243.796 73.1326C243.697 73.1512 243.482 73.0905 243.384 73.1091C236.851 71.394 230.154 70.4224 223.371 70.0776C223.175 70.1148 222.96 70.0539 222.726 69.8946C222.511 69.8335 222.375 69.6557 222.24 69.4777C222.105 69.2998 221.969 69.1218 221.834 68.9439C221.797 68.7474 221.741 68.4524 221.704 68.2559C221.727 67.8443 221.948 67.3955 222.304 67.1246C222.659 66.8537 223.034 66.6813 223.544 66.6866C230.542 67.0924 237.552 68.1064 244.3 69.8825C244.73 70.0046 245.081 70.2434 245.254 70.6179C245.525 70.9737 245.599 71.3665 245.575 71.7781C245.551 72.1897 245.331 72.6389 244.956 72.8115C244.601 73.0824 244.207 73.1565 243.796 73.1326Z" fill="#170358"/>
</g>
<g opacity="0.5">
<path d="M1197.1 528.397C1197 528.597 1196.9 528.697 1196.7 528.797L1194.7 530.297C1190 533.697 1185.1 537.297 1179.9 540.897C1179.7 540.997 1179.5 541.097 1179.3 541.197C1179.1 541.197 1178.8 541.197 1178.6 541.197C1178.4 541.197 1178.2 541.097 1178 540.997C1177.8 540.897 1177.6 540.697 1177.5 540.497C1177.4 540.297 1177.3 540.097 1177.2 539.897C1177.2 539.697 1177.2 539.497 1177.2 539.197C1177.2 538.997 1177.3 538.798 1177.5 538.598C1177.6 538.398 1177.8 538.298 1178 538.098C1183.2 534.498 1188.1 530.998 1192.8 527.598L1194.8 526.098C1195 525.998 1195.2 525.897 1195.4 525.797C1195.6 525.697 1195.8 525.697 1196.1 525.797C1196.3 525.797 1196.5 525.897 1196.7 525.997C1196.9 526.097 1197.1 526.297 1197.2 526.497C1197.4 526.797 1197.5 527.097 1197.5 527.497C1197.4 527.797 1197.3 528.197 1197.1 528.397ZM1162.7 551.497C1162.6 551.697 1162.4 551.897 1162.1 551.997C1156 555.497 1149.7 558.498 1143.3 561.098C1143.1 561.198 1142.8 561.297 1142.6 561.297C1142.4 561.297 1142.1 561.297 1141.9 561.197C1141.7 561.097 1141.5 560.997 1141.3 560.797C1141.1 560.597 1141 560.397 1140.9 560.197C1140.8 559.997 1140.8 559.797 1140.8 559.497C1140.8 559.297 1140.9 558.997 1141 558.797C1141.1 558.597 1141.2 558.397 1141.4 558.197C1141.6 557.997 1141.8 557.897 1142 557.897C1148.3 555.397 1154.5 552.397 1160.4 548.997C1160.6 548.897 1160.8 548.797 1161 548.797C1161.2 548.797 1161.5 548.797 1161.7 548.897C1161.9 548.997 1162.1 549.097 1162.3 549.197C1162.5 549.297 1162.6 549.497 1162.7 549.697C1162.9 549.997 1162.9 550.298 1162.9 550.598C1162.9 550.998 1162.8 551.297 1162.7 551.497ZM1124.3 566.598C1124.2 566.798 1124 566.998 1123.8 567.098C1123.6 567.198 1123.4 567.297 1123.2 567.397C1116.3 568.797 1109.3 569.497 1102.3 569.497C1101.8 569.497 1101.4 569.297 1101.1 568.997C1100.8 568.697 1100.6 568.197 1100.6 567.797C1100.6 567.597 1100.6 567.398 1100.7 567.098C1100.8 566.898 1100.9 566.698 1101.1 566.598C1101.3 566.398 1101.5 566.297 1101.7 566.197C1101.9 566.097 1102.1 566.098 1102.4 566.098C1109.2 566.098 1116 565.498 1122.6 564.098C1122.9 563.998 1123.3 564.097 1123.6 564.197C1123.9 564.297 1124.2 564.497 1124.4 564.797C1124.6 565.097 1124.7 565.397 1124.7 565.697C1124.5 565.897 1124.4 566.298 1124.3 566.598ZM1083.1 566.197C1082.9 566.497 1082.6 566.697 1082.3 566.797C1082 566.897 1081.6 566.997 1081.3 566.897C1074.4 565.397 1067.7 563.098 1061.4 560.098C1061.2 559.998 1061 559.897 1060.8 559.697C1060.7 559.497 1060.5 559.298 1060.5 559.098C1060.5 558.898 1060.4 558.697 1060.4 558.397C1060.4 558.197 1060.5 557.997 1060.6 557.797C1060.7 557.597 1060.8 557.397 1061 557.297C1061.2 557.097 1061.4 556.997 1061.6 556.997C1061.8 556.897 1062 556.897 1062.3 556.897C1062.5 556.897 1062.8 556.998 1063 557.098C1069.1 559.998 1075.6 562.197 1082.2 563.697C1082.6 563.797 1083 564.097 1083.3 564.397C1083.5 564.797 1083.6 565.197 1083.5 565.697C1083.4 565.797 1083.3 565.997 1083.1 566.197ZM1071 544.797C1068.9 547.997 1066.6 551.097 1064 553.997C1063.8 554.197 1063.7 554.297 1063.5 554.397C1063.3 554.497 1063.1 554.598 1062.8 554.598C1062.6 554.598 1062.3 554.597 1062.1 554.497C1061.9 554.397 1061.7 554.297 1061.5 554.197C1061.3 554.097 1061.2 553.897 1061.1 553.697C1061 553.497 1060.9 553.298 1060.9 553.098C1060.9 552.898 1060.9 552.697 1061 552.397C1061.1 552.097 1061.2 551.997 1061.3 551.797C1063.8 548.997 1066 546.097 1068 542.997C1069.7 540.397 1071.2 537.797 1072.5 534.997C1072.6 534.797 1072.7 534.597 1072.9 534.397C1073.1 534.197 1073.3 534.097 1073.5 533.997C1073.7 533.897 1074 533.897 1074.2 533.897C1074.4 533.897 1074.6 533.998 1074.9 534.098C1075.1 534.198 1075.3 534.297 1075.4 534.497C1075.6 534.697 1075.7 534.898 1075.8 535.098C1075.9 535.298 1075.9 535.497 1075.9 535.797C1075.9 535.997 1075.8 536.297 1075.7 536.497C1074.3 539.297 1072.8 542.097 1071 544.797ZM1048.9 567.697C1048.8 567.897 1048.7 567.998 1048.5 568.098C1042.9 572.298 1037.2 576.197 1031.2 579.797C1030.8 579.997 1030.4 580.097 1029.9 579.997C1029.4 579.897 1029.1 579.597 1028.8 579.197C1028.6 578.797 1028.5 578.297 1028.6 577.897C1028.7 577.497 1029 577.097 1029.4 576.797C1036.4 572.497 1041.7 568.897 1046.5 565.297C1046.8 564.997 1047.2 564.897 1047.6 564.897C1048 564.897 1048.4 565.097 1048.7 565.397C1049 565.697 1049.2 566.097 1049.2 566.497C1049.2 566.897 1049.1 567.297 1048.9 567.697ZM1081.2 516.797C1081 517.097 1080.7 517.397 1080.3 517.497C1079.9 517.597 1079.5 517.597 1079.2 517.497C1078.8 517.397 1078.5 517.097 1078.3 516.797C1078.1 516.497 1078 516.097 1078 515.697C1078.3 512.197 1078.1 508.597 1077.6 505.197C1077.1 502.197 1076.1 499.197 1074.8 496.397C1074.6 495.997 1074.6 495.498 1074.7 495.098C1074.9 494.698 1075.2 494.298 1075.6 494.098C1076 493.898 1076.5 493.897 1076.9 493.997C1077.3 494.097 1077.7 494.497 1077.9 494.897C1079.4 497.997 1080.4 501.198 1081 504.598C1081.6 508.398 1081.8 512.197 1081.5 515.997C1081.5 516.197 1081.4 516.497 1081.2 516.797ZM1046.2 548.397C1046.2 548.497 1046.1 548.498 1046.1 548.598C1045.8 548.898 1045.4 549.197 1045 549.197C1044.5 549.197 1044.1 549.097 1043.8 548.797C1038.3 544.297 1033.6 538.797 1030 532.697C1029.9 532.497 1029.8 532.298 1029.8 532.098C1029.8 531.898 1029.8 531.597 1029.8 531.397C1029.9 531.197 1030 530.997 1030.1 530.797C1030.2 530.597 1030.4 530.497 1030.6 530.397C1030.8 530.297 1031 530.197 1031.3 530.197C1031.5 530.197 1031.8 530.197 1032 530.197C1032.2 530.297 1032.4 530.397 1032.6 530.497C1032.8 530.597 1032.9 530.797 1033 530.997C1036.5 536.797 1040.9 541.897 1046.1 546.197C1046.4 546.497 1046.6 546.897 1046.7 547.297C1046.5 547.597 1046.4 547.997 1046.2 548.397ZM1013.9 589.897C1013.8 590.097 1013.6 590.297 1013.3 590.397C1011.2 591.697 1009.2 592.897 1007.2 594.197C1003.2 596.697 999.6 599.198 996.2 601.598C996 601.698 995.8 601.797 995.6 601.897C995.4 601.997 995.1 601.997 994.9 601.897C994.7 601.897 994.5 601.797 994.3 601.697C994.1 601.597 993.9 601.397 993.8 601.197C993.7 600.997 993.6 600.798 993.5 600.598C993.4 600.398 993.4 600.097 993.5 599.897C993.5 599.697 993.6 599.497 993.8 599.297C993.9 599.097 994.1 598.897 994.3 598.797C997.8 596.297 1001.4 593.797 1005.5 591.197C1007.6 589.897 1009.6 588.597 1011.7 587.297C1012 587.097 1012.4 586.997 1012.8 586.997C1013.2 586.997 1013.6 587.197 1013.8 587.497C1014.1 587.797 1014.3 588.097 1014.3 588.497C1014.3 589.097 1014.2 589.497 1013.9 589.897ZM954.2 668.897C954 669.097 953.8 669.297 953.6 669.497C953.3 669.597 953 669.697 952.8 669.697C952.6 669.697 952.3 669.598 952.1 669.598C951.9 669.498 951.7 669.397 951.5 669.197C951.3 668.997 951.2 668.898 951.1 668.598C951 668.398 951 668.197 951 667.897C951.2 660.797 952.4 653.798 954.7 647.098C954.8 646.698 955.2 646.298 955.5 646.098C955.9 645.898 956.4 645.897 956.8 645.997C957.2 646.097 957.6 646.497 957.8 646.897C958 647.297 958 647.797 957.9 648.197C955.7 654.597 954.5 661.197 954.4 667.997C954.5 668.297 954.4 668.597 954.2 668.897ZM980.7 614.497C980.6 614.597 980.5 614.697 980.4 614.797C975.5 619.497 971.1 624.697 967.2 630.197C966.9 630.597 966.5 630.797 966.1 630.897C965.6 630.997 965.2 630.898 964.8 630.598C964.4 630.398 964.2 629.997 964.1 629.497C964 628.997 964.1 628.597 964.3 628.197C968.3 622.397 972.9 617.097 978 612.297C978.2 612.097 978.4 611.997 978.6 611.897C978.8 611.797 979 611.797 979.3 611.797C979.5 611.797 979.8 611.797 980 611.897C980.2 611.997 980.4 612.097 980.6 612.297C980.9 612.597 981.1 612.897 981.1 613.297C981 613.797 980.9 614.197 980.7 614.497ZM1064.2 481.297C1064 481.697 1063.6 481.897 1063.2 481.997C1062.8 482.097 1062.3 481.997 1062 481.797C1057.4 478.997 1052 477.897 1046.6 478.797C1045.6 478.997 1044.5 479.298 1043.5 479.598C1043.3 479.698 1043 479.697 1042.8 479.697C1042.6 479.697 1042.4 479.597 1042.2 479.497C1042 479.397 1041.8 479.298 1041.6 479.098C1041.5 478.898 1041.3 478.697 1041.3 478.497C1041.2 478.297 1041.2 478.097 1041.2 477.797C1041.2 477.597 1041.3 477.397 1041.4 477.197C1041.5 476.997 1041.6 476.797 1041.8 476.697C1042 476.497 1042.2 476.397 1042.4 476.397C1043.6 475.997 1044.8 475.697 1046 475.397C1052.1 474.297 1058.4 475.497 1063.7 478.797C1064.1 478.997 1064.4 479.397 1064.5 479.797C1064.5 480.397 1064.5 480.897 1064.2 481.297ZM1026.3 513.297C1026.1 513.597 1025.8 513.797 1025.5 513.997C1025.1 514.097 1024.8 514.198 1024.5 514.098C1024.1 513.998 1023.8 513.797 1023.6 513.497C1023.4 513.197 1023.2 512.897 1023.2 512.497C1022.6 505.297 1023.9 497.997 1026.9 491.497C1027.1 491.097 1027.5 490.798 1027.9 490.598C1028.3 490.498 1028.8 490.497 1029.2 490.697C1029.6 490.897 1029.9 491.197 1030.1 491.697C1030.2 492.097 1030.2 492.597 1030 492.997C1027.2 498.997 1026 505.697 1026.6 512.297C1026.6 512.497 1026.5 512.897 1026.3 513.297Z" fill="#170358"/>
<path d="M962.2 698.098C962.1 698.298 961.9 698.498 961.7 698.598C961.3 698.798 960.9 698.897 960.4 698.797C959.9 698.697 959.6 698.398 959.3 698.098C957.4 695.198 955.801 692.097 954.601 688.897C954.501 688.697 954.5 688.497 954.4 688.197C954.4 687.997 954.4 687.698 954.5 687.498C954.6 687.298 954.7 687.097 954.9 686.897C955.1 686.697 955.3 686.598 955.5 686.498C955.7 686.398 956 686.397 956.2 686.397C956.4 686.397 956.7 686.498 956.9 686.598C957.1 686.698 957.3 686.898 957.5 686.998C957.6 687.198 957.8 687.398 957.8 687.598C958.9 690.598 960.4 693.497 962.2 696.197C962.4 696.497 962.5 696.798 962.4 697.098C962.5 697.498 962.4 697.798 962.2 698.098Z" fill="#170358"/>
</g>
</g>
<defs>
<clipPath id="clip0">
<rect width="1194" height="834" fill="white"/>
</clipPath>
</defs>
</svg>
