<svg width="84" height="84" viewBox="0 0 84 84" fill="none" xmlns="http://www.w3.org/2000/svg">
<path fill-rule="evenodd" clip-rule="evenodd" d="M-2.15082e-09 41.6801C-1.01949e-09 19.7563 17.5417 -9.04146e-10 41.75 -2.15191e-09C65.4167 -3.37176e-09 83.3333 19.3812 83.3333 41.555C83.3333 67.2716 62.3333 83.2351 41.6667 83.2351C34.8333 83.2351 27.25 81.4012 21.1667 77.8167C19.0417 76.5246 17.25 75.5659 14.9583 76.3162L6.54167 78.817C4.41667 79.4839 2.5 77.8167 3.125 75.5659L5.91667 66.2296C6.375 64.9375 6.29167 63.5621 5.625 62.4784C2.04167 55.893 -2.51216e-09 48.6823 -2.15082e-09 41.6801ZM36.2475 41.6775C36.2475 44.6368 38.6225 47.0126 41.5809 47.0542C44.5392 47.0542 46.9142 44.6368 46.9142 41.7192C46.9142 38.7599 44.5392 36.3842 41.5809 36.3842C38.6642 36.3425 36.2475 38.7599 36.2475 41.6775ZM55.4539 41.7188C55.4539 44.6364 57.8289 47.0538 60.7872 47.0538C63.7455 47.0538 66.1205 44.6364 66.1205 41.7188C66.1205 38.7595 63.7455 36.3838 60.7872 36.3838C57.8289 36.3838 55.4539 38.7595 55.4539 41.7188ZM22.3745 47.0538C19.4578 47.0538 17.0412 44.6364 17.0412 41.7188C17.0412 38.7595 19.4162 36.3838 22.3745 36.3838C25.3328 36.3838 27.7078 38.7595 27.7078 41.7188C27.7078 44.6364 25.3328 47.0122 22.3745 47.0538Z" fill="white"/>
</svg>
