<svg width="1188" height="834" viewBox="0 0 1188 834" fill="none" xmlns="http://www.w3.org/2000/svg">
<g clip-path="url(#clip0)">
<g opacity="0.2">
<path d="M65.9183 138.5C33.6145 154 -18.0715 198.8 33.6146 254C98.2224 323 147.291 150.5 391 348.5" stroke="#201979" stroke-width="3" stroke-linecap="round" stroke-dasharray="15 10"/>
<path d="M886.641 555.997C890.298 564.697 901.36 583.418 916.525 588.151C947.186 597.72 986.658 563.688 1016.52 567.863C1032.71 570.128 1042.83 578.111 1048.55 588.151C1057.48 603.835 1049.3 615.766 1043.63 619.171C1037.95 622.575 1022.82 624.467 1015.26 604.796C1007.69 585.125 1003.53 551.079 1040.6 530.652C1077.67 510.225 1100.75 509.468 1111.34 493.202" stroke="#201979" stroke-width="2" stroke-linecap="round" stroke-linejoin="round" stroke-dasharray="15 10"/>
<path d="M1201.96 333.668L1209.66 338.381C1212.29 339.964 1213.12 343.383 1211.46 346.03L1135.15 470.561L1117.93 460.017L1194.24 335.485C1195.92 332.917 1199.42 332.064 1201.96 333.668Z" fill="#372EB4"/>
<path d="M1201.44 334.521L1201.44 334.521L1201.43 334.514C1199.38 333.222 1196.49 333.888 1195.08 336.021L1119.3 459.686L1134.82 469.187L1210.61 345.507L1210.61 345.507L1210.61 345.498C1211.98 343.323 1211.29 340.53 1209.15 339.237L1209.14 339.234L1201.44 334.521Z" stroke="black" stroke-opacity="0.5" stroke-width="2"/>
<path d="M1118.13 460.133L1135.27 470.699L1114.11 490.006L1110.56 487.823L1118.13 460.133Z" fill="#766EDB"/>
<path d="M1113.99 488.759L1133.62 470.854L1118.74 461.685L1111.72 487.364L1113.99 488.759Z" stroke="black" stroke-opacity="0.5" stroke-width="2"/>
<path d="M1121.9 479.278L1118.48 478.839L1116.89 476.981L1113.72 476.221L1110.62 487.722L1114.17 489.905L1122.67 482.122L1121.9 479.278Z" fill="#372EB4"/>
<path d="M1118.36 479.831L1117.98 479.782L1117.73 479.491L1116.34 477.878L1114.43 477.42L1111.78 487.262L1114.05 488.658L1121.54 481.795L1121.11 480.184L1118.36 479.831Z" stroke="black" stroke-opacity="0.5" stroke-width="2"/>
</g>
<path d="M249.57 330.442C244.086 364.002 259.81 398.434 266.459 431.751C274.613 472.779 291.841 516.28 326.299 540.043C366.047 567.443 394.633 560.169 442.825 562.497C551.877 567.734 656.901 627.482 764.885 611.187C821.619 602.652 874.762 572.341 911.015 527.87C947.269 483.448 966.245 425.301 963.188 368.027C961.586 338.299 954.064 308.473 938.096 283.304C922.129 258.134 897.281 238.057 868.307 231.025C815.844 218.367 761.002 249.26 707.617 240.724C652.339 231.849 612.882 183.887 563.962 156.632C505.917 124.333 431.808 122.83 372.551 152.801C336.006 171.326 305.77 201.442 285.969 237.232C273.69 259.492 255.054 296.883 249.57 330.442Z" fill="#4D44C5"/>
<path d="M490.482 114.149C494.899 116.622 500.771 117.301 504.994 114.44C506.644 113.324 508.003 111.627 508.245 109.639C508.682 106.535 506.352 103.674 503.732 101.879C499.073 98.727 493.249 97.7086 487.668 97.9996C485.823 98.0966 483.979 98.339 482.329 99.212C480.679 100.085 479.369 101.685 479.271 103.528C479.32 108.717 486.066 111.676 490.482 114.149Z" fill="#4D44C5"/>
<path d="M542.995 108.96C545.325 106.39 549.013 105.614 552.411 105.226C569.979 103.189 589.052 107.311 601.719 119.629C604.971 122.782 609.776 131.365 608.562 135.73C607.398 139.998 604.389 142.471 600.118 143.635C589.344 146.496 575.366 145.478 565.223 140.774C555.08 136.07 542.073 125.158 540.617 117.98C540.083 114.974 540.666 111.53 542.995 108.96Z" fill="#4D44C5"/>
<path d="M239.475 447.658C241.028 448.773 243.066 449.646 244.814 448.821C246.901 447.803 247.192 444.893 246.803 442.614C245.93 437.522 243.115 432.721 239.087 429.471C237.825 428.453 236.126 427.532 234.573 428.114C233.02 428.695 232.389 430.49 232.195 432.139C231.807 435.582 231.904 435.873 232.826 439.171C233.748 442.468 236.563 445.524 239.475 447.658Z" fill="#4D44C5"/>
<path d="M956.925 458.424C958.333 456.242 959.837 454.011 962.021 452.701C964.254 451.392 967.36 451.198 969.252 452.944C971 454.593 971.145 457.309 970.903 459.733C970.126 467.25 966.292 474.428 960.517 479.374C958.964 480.732 956.974 481.945 954.935 481.508C953.431 481.169 952.218 479.859 951.684 478.404C951.101 476.949 951.101 475.349 951.199 473.797C951.781 466.523 956.925 458.424 956.925 458.424Z" fill="#4D44C5"/>
</g>
<defs>
<clipPath id="clip0">
<rect width="834" height="1194" fill="white" transform="translate(-6 834) rotate(-90)"/>
</clipPath>
</defs>
</svg>
