<svg width="92" height="67" viewBox="0 0 92 67" fill="none" xmlns="http://www.w3.org/2000/svg">
<path fill-rule="evenodd" clip-rule="evenodd" d="M63.1612 17.6161C63.1612 27.3949 55.3563 35.2359 45.6225 35.2359C35.8887 35.2359 28.0838 27.3949 28.0838 17.6161C28.0838 7.83354 35.8887 -1.84955e-09 45.6225 -2.35119e-09C55.3563 -2.85282e-09 63.1612 7.83354 63.1612 17.6161ZM45.6203 66.5863C31.3237 66.5863 19.1164 64.3224 19.1164 55.267C19.1164 46.2078 31.2454 43.8615 45.6203 43.8615C59.9169 43.8615 72.1242 46.1254 72.1242 55.1846C72.1242 64.24 59.9953 66.5863 45.6203 66.5863ZM70.6567 17.9375C70.6567 22.9225 69.1681 27.5664 66.5565 31.4269C66.2878 31.8242 66.5266 32.3602 67.0004 32.4427C67.6533 32.5551 68.3286 32.6188 69.0151 32.6376C75.8612 32.8175 82.0059 28.391 83.7034 21.7268C86.218 11.8281 78.8347 2.94135 69.4329 2.94135C68.4107 2.94135 67.4332 3.05005 66.4818 3.24495C66.3513 3.27493 66.2132 3.3349 66.1386 3.45109C66.0491 3.59352 66.1162 3.78468 66.2058 3.90836C69.03 7.8851 70.6567 12.7351 70.6567 17.9375ZM81.993 39.5887C86.5931 40.492 89.6188 42.336 90.8724 45.0159C91.932 47.2161 91.932 49.7685 90.8724 51.9649C88.9547 56.1216 82.7727 57.4559 80.3701 57.8007C79.8739 57.8757 79.4747 57.4446 79.5269 56.9461C80.7543 45.4282 70.9907 39.9672 68.4649 38.7116C68.3568 38.6554 68.3344 38.5692 68.3456 38.5167C68.353 38.4792 68.3978 38.4193 68.4799 38.408C73.9456 38.3068 79.8216 39.0564 81.993 39.5887ZM22.6564 32.6375C23.3429 32.6187 24.0145 32.5588 24.6711 32.4426C25.1449 32.3601 25.3837 31.8241 25.115 31.4268C22.5035 27.5663 21.0149 22.9224 21.0149 17.9374C21.0149 12.7351 22.6415 7.88501 25.4657 3.90827C25.5553 3.78458 25.6187 3.59343 25.5329 3.451C25.4583 3.33856 25.3165 3.27484 25.1897 3.24486C24.2346 3.04996 23.2571 2.94126 22.2348 2.94126C12.8331 2.94126 5.44977 11.828 7.96809 21.7268C9.66562 28.3909 15.8103 32.8174 22.6564 32.6375ZM23.3206 38.5133C23.3318 38.5696 23.3094 38.652 23.2049 38.712C20.6754 39.9676 10.9118 45.4286 12.1392 56.9428C12.1915 57.445 11.796 57.8723 11.2998 57.8011C8.89713 57.4563 2.71512 56.1219 0.797468 51.9653C-0.265823 49.7652 -0.265823 47.2164 0.797468 45.0163C2.05103 42.3364 5.07301 40.4923 9.67314 39.5853C11.8482 39.0568 17.7206 38.3072 23.19 38.4084C23.2721 38.4196 23.3131 38.4796 23.3206 38.5133Z" fill="white"/>
</svg>
