<svg width="1194" height="834" viewBox="0 0 1194 834" fill="none" xmlns="http://www.w3.org/2000/svg">
<g opacity="0.15" clip-path="url(#clip0)">
<rect y="636.689" width="1194" height="4" fill="#372EB4"/>
<line x1="5.08111" y1="679.02" x2="527.055" y2="680.308" stroke="#170358" stroke-width="4"/>
<line y1="-2" x2="521.976" y2="-2" transform="matrix(0.999998 0.00207488 -0.00293356 0.999996 9.25195 689.045)" stroke="#170358" stroke-width="4"/>
<line y1="-2" x2="526.73" y2="-2" transform="matrix(0.999999 0.00111081 -0.00157052 0.999999 12.8301 697.071)" stroke="#170358" stroke-width="4"/>
<line y1="-2" x2="528.66" y2="-2" transform="matrix(1 0.000114695 -0.00016216 1 16.8477 705.096)" stroke="#170358" stroke-width="4"/>
<line y1="-2" x2="530.93" y2="-2" transform="matrix(1 0.000714133 -0.00100967 0.999999 21.0215 710.613)" stroke="#170358" stroke-width="4"/>
<line y1="-2" x2="539.853" y2="-2" transform="matrix(0.999997 -0.0025812 0.0036494 0.999993 21.0215 718.639)" stroke="#170358" stroke-width="4"/>
<line y1="-2" x2="545.802" y2="-2" transform="matrix(0.999998 0.00207488 -0.00293356 0.999996 28.457 726.664)" stroke="#170358" stroke-width="4"/>
<line y1="-2" x2="548.278" y2="-2" transform="matrix(1 -0.000452909 0.000640342 1 31.4316 737.086)" stroke="#170358" stroke-width="4"/>
<line y1="-2" x2="553.732" y2="-2" transform="matrix(0.999998 0.00207488 -0.00293356 0.999996 34.4043 745.111)" stroke="#170358" stroke-width="4"/>
<line y1="-2" x2="560.176" y2="-2" transform="matrix(1 -0.000629928 0.00089062 1 37.873 755.533)" stroke="#170358" stroke-width="4"/>
<line y1="-2" x2="562.083" y2="-2" transform="matrix(1 0.000669039 -0.000945917 1 44.3926 763.558)" stroke="#170358" stroke-width="4"/>
<path d="M507.874 676.298H16.8477L55.9553 766.198H593.912C586.959 754.504 533.656 701.392 507.874 676.298Z" fill="#766EDB"/>
<line x1="16.8496" y1="679.52" x2="512.827" y2="680.163" stroke="#372EB4" stroke-width="3"/>
<line y1="-1.5" x2="501.543" y2="-1.5" transform="matrix(0.999998 0.00215941 -0.00281872 0.999996 20.8594 689.045)" stroke="#372EB4" stroke-width="3"/>
<line y1="-1.5" x2="506.111" y2="-1.5" transform="matrix(0.999999 0.00115607 -0.00150904 0.999999 24.2969 697.071)" stroke="#372EB4" stroke-width="3"/>
<line y1="-1.5" x2="507.965" y2="-1.5" transform="matrix(1 0.000119367 -0.000155813 1 28.1582 705.096)" stroke="#372EB4" stroke-width="3"/>
<line y1="-1.5" x2="510.146" y2="-1.5" transform="matrix(1 0.000743228 -0.000970149 1 32.168 710.613)" stroke="#372EB4" stroke-width="3"/>
<line y1="-1.5" x2="516.191" y2="-1.5" transform="matrix(0.999996 -0.00267354 0.00377995 0.999993 34.6973 718.625)" stroke="#372EB4" stroke-width="3"/>
<line y1="-1.5" x2="519.676" y2="-1.5" transform="matrix(0.999998 0.00215941 -0.00281872 0.999996 39.3145 726.664)" stroke="#372EB4" stroke-width="3"/>
<line y1="-1.5" x2="526.816" y2="-1.5" transform="matrix(1 -0.00047136 0.000615276 1 42.1699 737.086)" stroke="#372EB4" stroke-width="3"/>
<line y1="-1.5" x2="532.056" y2="-1.5" transform="matrix(0.999998 0.00215941 -0.00281872 0.999996 45.0273 745.111)" stroke="#372EB4" stroke-width="3"/>
<line y1="-1.5" x2="536.408" y2="-1.5" transform="matrix(1 -0.000655591 0.000855756 1 48.3613 755.533)" stroke="#372EB4" stroke-width="3"/>
<line y1="-1.5" x2="540.08" y2="-1.5" transform="matrix(1 0.000696296 -0.000908888 1 54.625 763.558)" stroke="#372EB4" stroke-width="3"/>
<rect x="19.4629" y="495.899" width="528.576" height="154.25" rx="65.3349" fill="#766EDB"/>
<path d="M25.0253 662.671C24.9477 662.072 25.4137 661.542 26.017 661.542H49.1875C49.7909 661.542 50.2568 662.072 50.1792 662.671L45.4386 699.212C45.374 699.71 44.9495 700.083 44.447 700.083H30.7576C30.255 700.083 29.8305 699.71 29.7659 699.212L25.0253 662.671Z" fill="#170358"/>
<rect x="19.4629" y="607.959" width="528.576" height="2.06109" rx="1.03055" fill="#372EB4"/>
<path d="M521.886 557.166C514.45 540.265 473.155 528.716 453.437 525.054C440.761 540.264 422.17 590.968 427.24 601.954C430.349 608.69 457.459 621.624 476.298 626.245C482.037 627.653 488.015 626.245 491.037 626.245C505.777 626.245 529.322 574.067 521.886 557.166Z" fill="#372EB4"/>
<path d="M542.975 662.671C543.052 662.072 542.586 661.542 541.983 661.542H518.813C518.209 661.542 517.743 662.072 517.821 662.671L522.561 699.212C522.626 699.71 523.05 700.083 523.553 700.083H537.242C537.745 700.083 538.169 699.71 538.234 699.212L542.975 662.671Z" fill="#170358"/>
<rect x="19.4629" y="632.689" width="528.576" height="28.8522" rx="14.4261" fill="#372EB4"/>
<rect x="6.07617" y="557.882" width="52.6108" height="108.912" rx="13" fill="#372EB4" stroke="#766EDB" stroke-width="2"/>
<rect x="-1" y="1" width="52.6108" height="108.912" rx="13" transform="matrix(-1 0 0 1 560.924 556.882)" fill="#372EB4" stroke="#766EDB" stroke-width="2"/>
<path d="M63.8812 609.212C61.7834 607.113 60.1647 564.404 59.6175 543.312C59.5465 540.673 70.4377 535.444 100.273 535.444C130.108 535.444 131.091 529.543 138.96 535.444C146.828 541.346 144.533 601.999 136.009 609.212C127.485 616.424 98.6334 612.163 89.1255 610.851C79.6177 609.54 66.5034 611.835 63.8812 609.212Z" fill="#170358"/>
<path d="M144.532 556.755C126.435 554.918 116.446 568.885 113.714 576.098C109.452 586.917 112.074 608.556 129.123 615.441C146.171 622.326 161.253 615.441 169.449 600.032C177.646 584.623 167.154 559.05 144.532 556.755Z" fill="#201979"/>
<g opacity="0.73">
<rect x="53.4297" y="146.563" width="130.218" height="99.8661" fill="#766EDB"/>
<rect x="195.217" y="146.563" width="130.218" height="99.8661" fill="#766EDB"/>
<rect x="195.217" y="264.001" width="130.218" height="99.8661" fill="#766EDB"/>
<rect x="53.4297" y="264.001" width="130.218" height="99.8661" fill="#766EDB"/>
</g>
<g opacity="0.73">
<rect x="869.564" y="155.35" width="130.218" height="99.8661" fill="#766EDB"/>
<rect x="1011.35" y="155.35" width="130.218" height="99.8661" fill="#766EDB"/>
<rect x="1011.35" y="272.787" width="130.218" height="99.8661" fill="#766EDB"/>
<rect x="869.564" y="272.787" width="130.218" height="99.8661" fill="#766EDB"/>
</g>
<path d="M1089.35 613.627C1067.76 613.627 1050.24 614.423 1050.16 615.379C1050.24 616.335 1067.76 617.131 1089.35 617.131C1110.85 617.131 1128.46 616.335 1128.54 615.379C1128.46 614.344 1111.01 613.627 1089.35 613.627ZM1090.3 616.574C1074.13 616.574 1060.99 616.016 1060.99 615.299C1060.99 614.582 1074.13 614.025 1090.3 614.025C1106.47 614.025 1119.62 614.582 1119.62 615.299C1119.62 616.016 1106.47 616.574 1090.3 616.574Z" fill="#372EB4"/>
<path d="M1089.35 613.627C1067.68 613.627 1050.16 614.423 1050.16 615.379C1050.16 616.335 1067.68 617.131 1089.35 617.131C1111.01 617.131 1128.54 616.335 1128.54 615.379C1128.54 614.423 1111.01 613.627 1089.35 613.627ZM1090.3 616.574C1074.13 616.574 1060.99 616.016 1060.99 615.299C1060.99 614.582 1074.13 614.025 1090.3 614.025C1106.47 614.025 1119.62 614.582 1119.62 615.299C1119.62 616.016 1106.47 616.574 1090.3 616.574Z" fill="#372EB4"/>
<path d="M1090.3 616.573C1106.47 616.573 1119.62 616.016 1119.62 615.299C1119.62 614.582 1106.47 614.024 1090.3 614.024C1074.14 614.024 1060.99 614.582 1060.99 615.299C1060.99 616.016 1074.06 616.573 1090.3 616.573Z" fill="#BA9C7E" fill-opacity="0.2"/>
<path d="M1111.81 466.112C1103.45 486.025 1097.47 506.893 1094.05 528.24C1090.7 549.586 1089.75 571.251 1091.42 592.837C1092.38 604.944 1094.13 616.891 1096.68 628.759C1097.16 630.91 1100.42 630.034 1099.94 627.883C1095.4 606.935 1093.49 585.588 1094.05 564.162C1094.61 542.896 1097.71 521.629 1103.29 501.079C1106.4 489.45 1110.38 478.06 1115.08 466.988C1115.48 466.192 1114.68 465.077 1113.88 464.917C1112.93 464.678 1112.13 465.236 1111.81 466.112Z" fill="#372EB4"/>
<path d="M1112.93 556.119C1104.56 574.279 1099.54 593.873 1098.19 613.786C1097.79 619.361 1097.71 624.937 1097.95 630.513C1098.03 632.663 1101.46 632.663 1101.3 630.513C1100.58 611.078 1103.45 591.563 1109.66 573.164C1111.41 567.987 1113.48 562.809 1115.79 557.791C1116.75 555.88 1113.8 554.127 1112.93 556.119Z" fill="#372EB4"/>
<path d="M1070.23 470.574C1075.57 489.053 1079.39 507.93 1082.18 526.967C1084.97 545.923 1086.8 565.119 1088.23 584.235C1089.03 595.068 1089.83 605.9 1090.46 616.813C1090.62 618.963 1093.97 618.963 1093.81 616.813C1092.53 597.537 1091.26 578.182 1089.35 558.907C1087.44 539.711 1084.89 520.515 1081.14 501.558C1078.99 490.805 1076.44 480.211 1073.42 469.698C1072.86 467.547 1069.67 468.423 1070.23 470.574Z" fill="#372EB4"/>
<path d="M1050.4 526.09C1055.02 530.79 1057.89 536.843 1060.35 542.897C1063.14 549.587 1065.53 556.358 1067.6 563.287C1071.74 576.987 1074.77 591.006 1076.28 605.263C1077.16 613.228 1077.64 621.273 1077.72 629.318C1077.72 631.468 1081.06 631.468 1081.06 629.318C1080.98 614.662 1079.47 600.006 1076.6 585.59C1073.82 571.252 1069.59 557.075 1064.1 543.454C1061.23 536.365 1058.12 529.276 1052.63 523.701C1051.27 522.108 1048.81 524.497 1050.4 526.09Z" fill="#372EB4"/>
<path d="M1073.74 593.315C1071.27 590.209 1068.08 588.138 1065.53 587.103C1062.91 586.067 1060.84 586.067 1060.2 586.704C1059.56 587.421 1059.72 589.412 1060.6 591.882C1061.47 594.351 1062.99 597.377 1065.22 600.086C1067.45 602.873 1070.08 604.865 1072.46 606.219C1074.77 607.573 1076.77 608.13 1077.32 607.812C1078.04 607.334 1078.44 605.343 1077.96 602.555C1077.64 599.847 1076.29 596.342 1073.74 593.315Z" fill="#372EB4"/>
<path d="M1084.49 570.296C1086.56 560.101 1084.65 551.18 1082.74 550.861C1080.83 550.543 1075.89 558.11 1073.82 568.146C1071.83 578.182 1073.9 587.182 1075.25 587.501C1076.92 587.899 1082.42 580.571 1084.49 570.296Z" fill="#766EDB"/>
<path d="M1075.33 587.421C1077.48 585.271 1072.38 576.828 1064.02 568.624C1055.66 560.42 1047.13 555.482 1045.06 557.632C1042.91 559.783 1048.01 568.226 1056.37 576.43C1064.66 584.634 1073.18 589.572 1075.33 587.421Z" fill="#372EB4"/>
<path d="M1090.86 599.607C1091.82 595.386 1092.37 591.244 1092.61 587.5C1092.85 583.757 1092.69 580.332 1092.37 577.544C1091.74 571.809 1090.38 568.384 1089.43 568.384C1088.47 568.384 1087.12 571.73 1085.52 576.987C1084.73 579.615 1083.85 582.721 1083.05 586.067C1082.18 589.492 1081.22 593.235 1080.35 597.138C1079.39 601.041 1078.59 604.864 1077.96 608.289C1077.24 611.714 1076.68 614.98 1076.2 617.688C1075.33 623.104 1075.09 626.768 1075.73 627.087C1076.52 627.485 1079.23 624.936 1082.42 620.157C1084.01 617.768 1085.6 614.741 1087.12 611.316C1088.47 607.732 1089.82 603.829 1090.86 599.607Z" fill="#201979"/>
<path d="M1113.01 603.829C1116.27 598.094 1118.66 592.598 1120.02 588.297C1121.45 583.996 1121.77 581.049 1120.97 580.491C1120.17 579.934 1117.55 581.447 1114.2 584.554C1110.86 587.66 1106.87 592.439 1103.53 598.333C1100.18 604.227 1098.19 610.201 1097.31 614.662C1096.84 616.892 1096.68 618.803 1096.68 620.158C1096.68 620.556 1096.52 621.113 1096.84 621.83C1096.92 621.989 1097 622.149 1097.08 622.228C1097.16 622.388 1097.47 622.547 1097.63 622.627C1098.03 622.706 1098.27 622.627 1098.43 622.547C1098.75 622.308 1098.99 621.989 1098.83 621.751C1098.75 621.512 1098.59 621.591 1098.51 621.591C1098.43 621.671 1098.43 621.671 1098.35 621.671C1098.27 621.75 1098.43 621.671 1098.35 621.671C1098.35 621.671 1098.27 621.671 1098.27 621.591C1098.19 621.512 1098.19 621.432 1098.19 621.432C1098.19 621.432 1098.19 621.511 1098.19 621.671C1098.19 621.671 1098.19 621.671 1098.19 621.751L1098.43 621.591C1098.43 621.591 1098.43 621.591 1098.51 621.591C1098.59 621.591 1098.83 621.511 1099.23 621.671H1099.31H1099.39H1099.47C1099.55 621.671 1099.54 621.671 1099.62 621.591C1100.74 620.795 1102.01 619.441 1103.45 617.768C1106.24 614.423 1109.82 609.484 1113.01 603.829Z" fill="#201979"/>
<path d="M1104.4 578.022C1103.6 570.773 1101.77 564.401 1099.94 559.941C1098.11 555.48 1096.36 552.772 1095.4 552.932C1094.44 553.091 1093.57 556.197 1093.09 560.976C1092.69 565.755 1092.69 572.287 1093.49 579.296C1093.89 582.801 1094.44 586.146 1095.16 589.093C1095.88 592.12 1096.6 594.748 1097.07 596.899C1097.63 599.049 1098.03 600.881 1098.43 602.235C1098.75 603.51 1099.06 604.386 1099.38 604.466C1099.78 604.545 1100.58 604.067 1101.37 602.793C1102.17 601.519 1103.13 599.527 1103.68 596.978C1104.32 594.43 1104.64 591.483 1104.72 588.297C1104.88 585.19 1104.8 581.686 1104.4 578.022Z" fill="#372EB4"/>
<path d="M1059.32 543.135C1055.1 539.073 1050.56 536.285 1046.89 534.692C1043.23 533.099 1040.6 532.701 1039.96 533.497C1039.41 534.214 1040.36 536.763 1042.43 539.949C1044.5 543.215 1047.77 547.197 1051.75 551.02C1055.81 554.844 1060.04 557.791 1063.38 559.702C1066.73 561.614 1069.27 562.49 1069.83 562.012C1070.55 561.455 1069.99 558.747 1068.24 555.162C1066.65 551.578 1063.62 547.197 1059.32 543.135Z" fill="#766EDB"/>
<path d="M1053.03 515.496C1048.01 506.575 1040.68 501.478 1039.01 502.513C1037.42 503.469 1038.61 512.231 1043.47 520.912C1048.33 529.594 1055.58 534.931 1056.85 534.294C1058.45 533.418 1058.05 524.417 1053.03 515.496Z" fill="#372EB4"/>
<path d="M1071.67 532.543C1070.79 526.489 1068.64 521.232 1066.49 517.807C1064.34 514.303 1062.19 512.55 1061.31 512.949C1060.43 513.267 1059.96 515.896 1059.88 519.799C1059.8 523.622 1060.12 528.72 1060.83 534.136C1061.63 539.632 1062.82 544.49 1064.02 548.154C1065.21 551.818 1066.41 554.287 1067.13 554.287C1068 554.367 1069.52 552.057 1070.71 548.154C1071.82 544.172 1072.54 538.517 1071.67 532.543Z" fill="#201979"/>
<path d="M1127.34 565.915C1132.36 562.49 1136.58 558.826 1139.45 555.799C1142.32 552.773 1143.91 550.383 1143.35 549.507C1142.87 548.71 1140.01 548.71 1135.94 549.905C1131.8 551.02 1126.46 553.33 1121.21 556.914C1115.95 560.499 1111.97 564.8 1109.42 568.225C1106.95 571.729 1105.92 574.358 1106.31 574.916C1106.87 575.632 1109.66 574.995 1113.56 573.482C1117.46 571.968 1122.4 569.34 1127.34 565.915Z" fill="#766EDB"/>
<path d="M1130.37 539.312C1133.87 531.984 1135.86 524.815 1136.58 519.478C1137.38 514.142 1137.06 510.637 1136.18 510.319C1135.31 510 1133 512.629 1130.13 517.009C1127.26 521.47 1123.84 527.603 1120.49 534.533C1117.15 541.542 1114.68 548.153 1113.08 553.171C1111.49 558.189 1110.93 561.614 1111.49 562.012C1112.21 562.49 1115.15 560.499 1118.82 556.516C1122.56 552.613 1126.86 546.639 1130.37 539.312Z" fill="#372EB4"/>
<path d="M1120.81 540.985C1123.12 528.081 1122.64 517.169 1119.69 516.691C1116.75 516.134 1112.45 526.17 1110.06 539.073C1107.75 551.976 1108.22 562.889 1111.17 563.366C1114.12 563.844 1118.42 553.888 1120.81 540.985Z" fill="#766EDB"/>
<path d="M1124.16 454.165C1127.1 447.873 1129.17 441.899 1130.37 437.279C1131.56 432.739 1131.8 429.553 1130.93 429.075C1130.13 428.597 1127.5 430.429 1124.23 434.013C1120.97 437.598 1117.23 442.934 1114.2 449.466C1111.09 455.997 1109.5 462.289 1108.86 467.068C1108.22 471.847 1108.46 475.034 1109.1 475.273C1109.9 475.591 1112.21 473.361 1115 469.617C1117.86 465.874 1121.21 460.457 1124.16 454.165Z" fill="#766EDB"/>
<path d="M1115.79 454.165C1116.19 447.633 1116.03 441.66 1115.4 437.119C1114.84 432.659 1113.88 429.792 1112.93 429.632C1111.97 429.473 1110.22 431.942 1108.55 436.243C1106.87 440.544 1105.28 446.518 1104.88 453.368C1104.4 460.218 1105.28 466.431 1106.47 470.891C1107.59 475.352 1109.1 478.06 1109.82 478.06C1110.7 478.06 1111.97 475.272 1113.17 470.971C1114.28 466.59 1115.32 460.696 1115.79 454.165Z" fill="#372EB4"/>
<path d="M1123.6 485.388C1125.59 482.122 1127.26 478.856 1128.46 475.83C1129.65 472.723 1130.53 469.935 1131.09 467.387C1132.12 462.448 1131.88 459.183 1131.01 458.784C1130.13 458.386 1127.82 460.696 1124.79 464.519C1123.36 466.431 1121.61 468.661 1119.86 471.21C1118.1 473.759 1116.19 476.546 1114.36 479.573C1112.45 482.52 1110.78 485.467 1109.26 488.175C1107.75 490.884 1106.47 493.353 1105.44 495.583C1103.37 499.964 1102.25 502.991 1102.81 503.468C1103.45 504.026 1106.47 502.831 1110.54 499.804C1112.53 498.291 1114.84 496.3 1117.07 493.91C1119.38 491.521 1121.61 488.653 1123.6 485.388Z" fill="#766EDB"/>
<path d="M1099.15 481.167C1098.51 477.901 1097.87 474.795 1097.23 472.087C1097 470.653 1096.6 469.379 1096.36 468.104C1096.2 467.467 1096.04 466.909 1095.96 466.272C1095.88 465.715 1095.72 465.157 1095.56 464.6C1094.61 460.298 1093.81 457.351 1092.77 457.192C1091.9 457.033 1089.99 459.582 1088.63 464.44C1088.47 464.998 1088.31 465.715 1088.15 466.352C1088 467.069 1087.92 467.706 1087.84 468.343C1087.6 469.777 1087.52 471.29 1087.44 472.883C1087.36 476.069 1087.68 479.574 1088.23 483.078C1089.59 490.167 1092.06 495.982 1094.13 500.124C1096.28 504.266 1098.11 506.735 1098.75 506.655C1099.62 506.496 1100.5 503.469 1100.66 498.77C1100.98 494.07 1100.34 487.778 1099.15 481.167Z" fill="#372EB4"/>
<path d="M1114.76 516.61C1118.58 511.274 1121.13 505.858 1122.48 501.636C1123.84 497.415 1123.92 494.468 1123.04 493.99C1122.25 493.512 1119.78 495.105 1116.59 497.972C1113.4 500.919 1109.58 505.141 1105.84 510.238C1102.17 515.256 1099.39 520.354 1097.63 524.337C1095.88 528.319 1095.16 531.107 1095.72 531.585C1096.44 532.142 1099.15 531.107 1102.73 528.638C1106.47 526.089 1110.93 521.947 1114.76 516.61Z" fill="#201979"/>
<path d="M1072.46 460.378C1069.36 453.927 1065.46 448.909 1062.19 445.563C1058.92 442.218 1056.3 440.625 1055.5 441.103C1054.7 441.581 1054.94 444.608 1056.3 449.068C1057.57 453.529 1059.8 459.184 1062.67 465.078C1064.1 468.025 1065.46 470.733 1066.81 473.282C1067.45 474.556 1068.08 475.751 1068.72 476.787C1069.36 477.902 1069.92 478.937 1070.47 479.893C1072.62 483.716 1074.3 486.265 1075.01 486.185C1075.81 486.106 1076.93 483.079 1076.93 478.3C1076.93 477.105 1076.85 475.751 1076.69 474.397C1076.53 472.963 1076.29 471.53 1075.89 469.937C1075.09 466.91 1073.98 463.644 1072.46 460.378Z" fill="#372EB4"/>
<path d="M1072.22 484.033C1064.58 474.395 1055.34 469.218 1053.9 470.572C1052.47 471.846 1056.21 481.484 1063.7 490.883C1071.11 500.282 1080.11 505.778 1081.22 504.902C1082.66 503.946 1079.87 493.671 1072.22 484.033Z" fill="#372EB4"/>
<path d="M1076.37 505.62C1073.42 502.513 1070.15 500.124 1067.45 498.61C1064.74 497.097 1062.59 496.539 1061.79 497.097C1061.07 497.654 1061.07 499.964 1062.11 502.991C1063.14 506.018 1065.22 509.841 1068.48 513.107C1071.75 516.452 1075.49 518.603 1078.44 519.718C1081.46 520.833 1083.77 520.912 1084.25 520.435C1084.81 519.718 1084.33 517.567 1082.98 514.779C1081.54 512.071 1079.39 508.726 1076.37 505.62Z" fill="#766EDB"/>
<path d="M1082.34 534.612C1078.83 528.161 1075.09 522.505 1072.14 518.443C1069.2 514.461 1066.81 512.071 1066.09 512.39C1065.37 512.629 1065.45 515.735 1066.65 520.514C1067.84 525.214 1070.15 531.665 1073.82 538.276C1077.48 544.887 1081.78 550.383 1085.29 554.127C1088.79 557.87 1091.58 559.941 1092.14 559.623C1092.85 559.225 1092.14 556.277 1090.38 551.658C1088.63 547.118 1085.92 541.064 1082.34 534.612Z" fill="#766EDB"/>
<path d="M1098.75 543.533C1098.83 538.674 1097.63 534.373 1096.28 531.426C1094.85 528.479 1093.17 526.806 1092.22 526.965C1091.26 527.125 1090.23 529.116 1089.43 532.143C1088.63 535.169 1087.92 539.072 1087.84 543.373C1087.76 547.675 1088.39 551.657 1089.19 554.684C1089.99 557.711 1090.94 559.781 1091.66 559.861C1092.54 560.02 1094.21 558.427 1095.8 555.56C1097.31 552.613 1098.67 548.391 1098.75 543.533Z" fill="#372EB4"/>
<path d="M1103.05 560.819C1105.28 555.96 1106 551.021 1105.92 547.358C1105.76 543.694 1104.8 541.463 1103.93 541.224C1102.97 540.985 1101.3 542.738 1099.31 545.526C1097.32 548.313 1095.17 552.057 1093.17 556.358C1091.18 560.659 1089.91 564.801 1089.19 568.146C1088.39 571.492 1088.24 573.961 1088.79 574.359C1089.51 574.917 1091.9 574.12 1094.69 571.81C1097.47 569.5 1100.74 565.757 1103.05 560.819Z" fill="#766EDB"/>
<path d="M1088.79 476.387C1089.03 468.502 1088.08 461.492 1086.8 456.395C1085.53 451.297 1084.01 448.27 1082.98 448.35C1082.02 448.429 1080.83 451.616 1079.87 456.634C1078.92 461.652 1078.04 468.581 1077.88 476.148C1077.64 483.715 1078.28 490.644 1079 495.742C1079.79 500.84 1080.75 504.105 1081.46 504.185C1082.34 504.265 1084.09 501.318 1085.61 496.3C1087.2 491.202 1088.63 484.193 1088.79 476.387Z" fill="#766EDB"/>
<path d="M1128.54 615.379C1128.46 616.334 1110.93 617.131 1089.35 617.131C1067.84 617.131 1050.24 616.334 1050.16 615.379C1050.16 615.458 1050.16 615.618 1050.16 615.777L1056.77 685.631L1057.89 697.339C1057.97 699.41 1071.98 701.083 1089.35 701.083C1106.71 701.083 1120.81 699.41 1120.81 697.339L1121.05 694.87C1121.05 694.79 1121.05 694.791 1121.05 694.711L1121.61 689.295L1128.62 615.697C1128.54 615.618 1128.54 615.458 1128.54 615.379Z" fill="#201979"/>
<path d="M1123.68 667.31L1124 664.203C1123.92 664.283 1123.76 664.283 1123.6 664.283C1111.81 668.664 1100.11 673.045 1088.4 677.426C1081.63 679.895 1074.86 682.444 1068.17 684.992C1067.21 685.391 1066.73 686.585 1067.53 687.302C1073.74 693.595 1083.14 693.834 1091.26 695.984C1093.81 696.701 1096.36 697.577 1098.51 699.011H1102.97C1097.8 693.993 1089.83 692.798 1082.82 691.285C1078.76 690.409 1074.62 689.294 1071.27 686.824C1082.98 682.444 1094.61 678.142 1106.32 673.762C1112.13 671.611 1117.87 669.46 1123.68 667.31Z" fill="#EBDBCD" fill-opacity="0.2"/>
<path d="M1093.09 639.433C1104.4 636.247 1115.79 633.141 1127.18 630.034L1127.74 624.379C1103.53 624.937 1079.31 625.972 1055.18 627.645C1053.91 627.724 1052.71 627.804 1051.44 627.884L1051.68 630.672C1072.62 629.238 1093.57 628.123 1114.52 627.486C1118.5 627.406 1122.57 627.247 1126.63 627.167C1116.03 630.114 1105.52 632.981 1094.93 635.929C1081.62 639.592 1068.4 643.575 1055.98 649.39C1055.18 649.788 1054.38 650.106 1053.67 650.505L1053.99 653.531C1054.62 653.213 1055.26 652.894 1055.9 652.576C1067.69 646.92 1080.35 643.017 1093.09 639.433Z" fill="#EBDBCD" fill-opacity="0.2"/>
<path d="M1064.02 663.647C1077.32 663.408 1090.46 660.62 1103.45 657.753C1110.61 656.16 1117.78 654.487 1124.95 653.292L1125.19 650.425C1107.59 653.531 1090.14 658.788 1072.3 660.381C1066.41 660.939 1060.35 661.018 1054.38 660.461L1054.62 663.328C1057.89 663.567 1060.91 663.647 1064.02 663.647Z" fill="#EBDBCD" fill-opacity="0.2"/>
<path d="M1119.62 615.298C1119.62 616.015 1106.47 616.572 1090.31 616.572C1074.14 616.572 1060.99 616.015 1060.99 615.298H1050.24C1050.24 615.298 1050.24 615.298 1050.24 615.377C1050.32 616.333 1067.84 617.13 1089.43 617.13C1110.94 617.13 1128.54 616.333 1128.62 615.377C1128.62 615.377 1128.62 615.377 1128.62 615.298H1119.62Z" fill="#372EB4"/>
</g>
<defs>
<clipPath id="clip0">
<rect width="1194" height="834" fill="white"/>
</clipPath>
</defs>
</svg>
