<svg width="40" height="40" viewBox="0 0 40 40" fill="none" xmlns="http://www.w3.org/2000/svg">
<path fill-rule="evenodd" clip-rule="evenodd" d="M31.6667 3.33328H8.33337C5.57195 3.33328 3.33337 5.57186 3.33337 8.33328V31.6666C3.33337 34.428 5.57195 36.6666 8.33337 36.6666H31.6667C31.9408 36.6628 32.2141 36.6349 32.4834 36.5833L32.9834 36.4666H33.1H33.1834L33.8 36.2333L34.0167 36.1166C34.1834 36.0166 34.3667 35.9333 34.5334 35.8166C34.7559 35.6529 34.9675 35.4747 35.1667 35.2833L35.2834 35.1333C35.447 34.9675 35.5975 34.7891 35.7334 34.5999L35.8834 34.3833C35.9998 34.1977 36.1002 34.0026 36.1834 33.7999C36.2291 33.72 36.2681 33.6364 36.3 33.5499C36.3834 33.3499 36.4334 33.1333 36.5 32.9166V32.6666C36.5945 32.341 36.6505 32.0053 36.6667 31.6666V8.33328C36.6667 5.57186 34.4281 3.33328 31.6667 3.33328ZM8.33339 33.3333C7.41291 33.3333 6.66672 32.5871 6.66672 31.6667V24.4833L12.1501 18.9833C12.463 18.6678 12.889 18.4903 13.3334 18.4903C13.7778 18.4903 14.2038 18.6678 14.5167 18.9833L28.8501 33.3333H8.33339ZM33.3334 31.6666C33.3318 31.8721 33.2923 32.0755 33.2167 32.2666C33.1787 32.3479 33.1341 32.4259 33.0834 32.5C33.0388 32.5705 32.9887 32.6374 32.9334 32.7L24.0167 23.7833L25.4834 22.3166C25.7964 22.0011 26.2223 21.8236 26.6667 21.8236C27.1111 21.8236 27.5371 22.0011 27.8501 22.3166L33.3334 27.8166V31.6666ZM33.3334 23.0999L30.2001 19.9999C28.2194 18.1205 25.1141 18.1205 23.1334 19.9999L21.6667 21.4666L16.8667 16.6666C14.886 14.7872 11.7807 14.7872 9.80006 16.6666L6.66672 19.7666V8.33323C6.66672 7.41276 7.41291 6.66656 8.33339 6.66656H31.6667C32.5872 6.66656 33.3334 7.41276 33.3334 8.33323V23.0999Z" fill="#A0AEC0"/>
</svg>
