<svg width="171" height="206" viewBox="0 0 171 206" fill="none" xmlns="http://www.w3.org/2000/svg">
<path d="M58.334 34.8329C57.2621 31.5364 55.9222 28.5962 55.4756 25.567C53.7784 16.2119 58.1553 7.92592 66.9984 4.27298C76.9133 0.0854628 87.4536 -0.983691 98.0831 0.887327C109.785 2.93654 115.948 10.5097 117.734 24.9433C121.307 21.3794 124.523 18.3502 127.471 15.0536C128.007 14.4299 127.739 12.9153 127.649 11.7571C127.471 7.83682 129.882 4.98575 133.545 4.89665C137.386 4.80756 140.065 7.48044 139.887 11.2225C139.708 15.0536 137.118 17.1028 133.009 17.0137C131.758 17.0137 130.15 17.0137 129.436 17.6374C124.612 22.0031 119.967 26.547 115.323 31.0018C115.501 31.3582 115.769 31.8037 115.948 32.1601C121.575 31.3582 127.203 30.6454 132.83 29.7545C133.634 29.6654 134.259 28.5071 134.974 27.7944C137.028 25.4779 139.797 24.4978 141.852 26.9925C143.013 28.418 143.37 31.5364 142.566 33.2292C141.316 35.9912 138.636 35.5457 135.956 34.3875C134.349 33.6747 132.473 33.1401 130.776 33.2292C125.774 33.6747 120.771 34.5657 114.876 35.3675C116.484 36.4367 117.466 37.1494 118.449 37.7731C137.564 49.8011 146.943 76.7972 138.904 96.6656C136.314 103.17 132.205 108.515 126.577 112.703C125.238 113.772 124.076 115.554 123.54 117.247C117.02 137.383 99.5123 149.232 79.6824 146.649C64.9439 144.778 51.456 131.859 46.8112 115.643C46.0966 113.148 44.4888 110.565 42.5236 108.872C30.1969 98.3585 25.9094 82.8558 31.2688 66.1948C35.8243 52.2958 43.5062 43.3862 58.334 34.8329ZM84.5059 63.2546C82.1835 67.0857 80.2183 71.3624 77.2706 74.748C71.7326 81.252 64.2293 84.9941 56.1009 87.1324C52.8852 88.0233 51.5453 89.7161 50.9201 92.8345C48.955 102.635 49.8482 111.99 54.0464 120.989C61.8176 137.65 78.6105 146.025 94.5102 141.214C115.144 134.977 125.595 110.565 119.342 90.3398C118.985 89.0925 117.377 87.9342 116.037 87.2215C103.889 81.0738 91.8304 74.748 84.5059 63.2546Z" fill="#F6C945"/>
<path d="M68.5 111C75.4036 111 81 105.404 81 98.5C81 91.5964 75.4036 86 68.5 86C61.5964 86 56 91.5964 56 98.5C56 105.404 61.5964 111 68.5 111Z" stroke="#F6C945" stroke-width="6" stroke-miterlimit="10"/>
<path d="M103.5 111C110.404 111 116 105.404 116 98.5C116 91.5964 110.404 86 103.5 86C96.5964 86 91 91.5964 91 98.5C91 105.404 96.5964 111 103.5 111Z" stroke="#F6C945" stroke-width="6" stroke-miterlimit="10"/>
<path d="M81 96L91 96" stroke="#F6C945" stroke-width="6" stroke-miterlimit="10"/>
<path d="M2.88 194V161.984H25.92V169.328H11.376V174.272H23.328V181.184H11.376V186.656H26.928V194H2.88ZM30.8051 194V161.984H38.9171V194H30.8051ZM59.058 194L58.626 191.696C57.826 192.688 56.85 193.424 55.698 193.904C54.578 194.384 53.49 194.624 52.434 194.624C51.25 194.624 50.146 194.432 49.122 194.048C48.098 193.696 47.186 193.184 46.386 192.512C45.202 191.488 44.274 190.128 43.602 188.432C42.962 186.736 42.642 184.896 42.642 182.912C42.642 180.64 43.138 178.608 44.13 176.816C45.154 175.024 46.578 173.6 48.402 172.544C50.226 171.488 52.354 170.96 54.786 170.96C55.522 170.96 56.194 171.024 56.802 171.152C57.41 171.248 57.922 171.36 58.338 171.488V161.984H66.45V194H59.058ZM58.338 183.632V178.208C57.538 177.92 56.658 177.776 55.698 177.776C54.258 177.776 53.074 178.24 52.146 179.168C51.25 180.064 50.802 181.408 50.802 183.2C50.802 184.544 51.138 185.632 51.81 186.464C52.482 187.264 53.474 187.664 54.786 187.664C55.97 187.664 56.85 187.312 57.426 186.608C58.034 185.904 58.338 184.912 58.338 183.632ZM95.6445 182.672L101.357 188.048C97.7725 192.56 93.0205 194.816 87.1005 194.816C83.8365 194.816 80.9405 194.096 78.4125 192.656C75.9165 191.216 73.9645 189.248 72.5565 186.752C71.1485 184.224 70.4445 181.328 70.4445 178.064C70.4445 174.8 71.1485 171.904 72.5565 169.376C73.9645 166.816 75.9165 164.8 78.4125 163.328C80.9085 161.856 83.8045 161.12 87.1005 161.12C89.8525 161.12 92.4125 161.584 94.7805 162.512C97.1805 163.44 99.1965 165.056 100.829 167.36L95.2125 173.024C94.3165 171.808 93.2445 170.832 91.9965 170.096C90.7485 169.36 89.3245 168.992 87.7245 168.992C85.9325 168.992 84.3965 169.392 83.1165 170.192C81.8685 170.96 80.9085 172.016 80.2365 173.36C79.5645 174.672 79.2285 176.16 79.2285 177.824C79.2285 179.52 79.5645 181.056 80.2365 182.432C80.9405 183.776 81.9325 184.832 83.2125 185.6C84.4925 186.368 85.9805 186.752 87.6765 186.752C89.5645 186.752 91.0845 186.416 92.2365 185.744C93.3885 185.072 94.5245 184.048 95.6445 182.672ZM102.97 182.72C102.97 180.48 103.466 178.448 104.458 176.624C105.482 174.8 106.906 173.36 108.73 172.304C110.554 171.216 112.65 170.672 115.018 170.672C117.418 170.672 119.514 171.216 121.306 172.304C123.13 173.36 124.538 174.8 125.53 176.624C126.554 178.448 127.066 180.48 127.066 182.72C127.066 184.96 126.554 186.992 125.53 188.816C124.538 190.64 123.13 192.096 121.306 193.184C119.514 194.24 117.418 194.768 115.018 194.768C112.65 194.768 110.554 194.24 108.73 193.184C106.906 192.096 105.482 190.64 104.458 188.816C103.466 186.992 102.97 184.96 102.97 182.72ZM115.018 187.664C116.362 187.664 117.434 187.2 118.234 186.272C119.034 185.312 119.434 184.128 119.434 182.72C119.434 181.312 119.034 180.144 118.234 179.216C117.434 178.256 116.362 177.776 115.018 177.776C113.674 177.776 112.602 178.256 111.802 179.216C111.002 180.144 110.602 181.312 110.602 182.72C110.602 184.128 111.002 185.312 111.802 186.272C112.602 187.2 113.674 187.664 115.018 187.664ZM130.79 194V171.44H138.614L138.902 173.936C139.766 172.848 140.774 172.064 141.926 171.584C143.11 171.104 144.278 170.864 145.43 170.864C146.838 170.864 147.974 171.072 148.838 171.488C149.734 171.872 150.422 172.304 150.902 172.784C151.382 173.264 151.718 173.632 151.91 173.888C152.39 173.344 153.046 172.848 153.878 172.4C154.71 171.952 155.59 171.584 156.518 171.296C157.478 171.008 158.39 170.864 159.254 170.864C162.134 170.864 164.342 171.664 165.878 173.264C167.414 174.864 168.182 177.04 168.182 179.792V194H160.07V181.952C160.07 180.736 159.83 179.776 159.35 179.072C158.87 178.368 158.086 178.016 156.998 178.016C155.91 178.016 155.014 178.368 154.31 179.072C153.638 179.776 153.302 180.736 153.302 181.952V194H145.67V181.952C145.67 180.736 145.43 179.776 144.95 179.072C144.502 178.368 143.718 178.016 142.598 178.016C141.574 178.016 140.694 178.368 139.958 179.072C139.254 179.776 138.902 180.736 138.902 181.952V194H130.79Z" fill="white"/>
</svg>
