<svg width="76" height="84" viewBox="0 0 76 84" fill="none" xmlns="http://www.w3.org/2000/svg">
<path fill-rule="evenodd" clip-rule="evenodd" d="M20.5417 0.324219L55.4625 0.324219C68.3333 0.324219 75.5 7.73214 75.5 20.4255L75.5 63.4164C75.5 76.3178 68.3333 83.5593 55.4625 83.5593L20.5417 83.5593C7.875 83.5593 0.5 76.3178 0.5 63.4164L0.5 20.4255C0.5 7.73214 7.875 0.324219 20.5417 0.324219ZM21.6691 19.713L21.6691 19.6714L34.1233 19.6714C35.9191 19.6714 37.3775 21.128 37.3775 22.9134C37.3775 24.7488 35.9191 26.2054 34.1233 26.2054L21.6691 26.2054C19.8733 26.2054 18.4191 24.7488 18.4191 22.9592C18.4191 21.1697 19.8733 19.713 21.6691 19.713ZM21.6691 45.0113L54.3358 45.0113C56.1275 45.0113 57.5858 43.5547 57.5858 41.7651C57.5858 39.9756 56.1275 38.5148 54.3358 38.5148L21.6691 38.5148C19.8733 38.5148 18.4191 39.9756 18.4191 41.7651C18.4191 43.5547 19.8733 45.0113 21.6691 45.0113ZM21.6696 64.0355L54.3363 64.0355C55.9988 63.8691 57.253 62.4499 57.253 60.7894C57.253 59.083 55.9988 57.668 54.3363 57.5016L21.6696 57.5016C20.4196 57.3767 19.2113 57.9594 18.5446 59.0414C17.878 60.0819 17.878 61.4552 18.5446 62.5373C19.2113 63.5777 20.4196 64.202 21.6696 64.0355Z" fill="white"/>
</svg>
