<svg width="98" height="98" viewBox="0 0 98 98" fill="none" xmlns="http://www.w3.org/2000/svg">
<g filter="url(#filter0_ii)">
<rect width="98" height="98" rx="10" fill="#FFC567"/>
</g>
<path fill-rule="evenodd" clip-rule="evenodd" d="M60.1667 36.7425C60.25 36.8882 60.3958 36.9922 60.5833 36.9922C65.5833 36.9922 69.6667 41.071 69.6667 46.0655L69.6667 58.4267C69.6667 63.4212 65.5833 67.5 60.5833 67.5L37.0833 67.5C32.0625 67.5 28 63.4212 28 58.4267L28 46.0655C28 41.071 32.0625 36.9922 37.0833 36.9922C37.25 36.9922 37.4167 36.909 37.4792 36.7425L37.6042 36.4928C37.676 36.3416 37.7497 36.1864 37.8245 36.0288C38.3575 34.9062 38.9471 33.6642 39.3125 32.9342C40.2708 31.0613 41.8958 30.0208 43.9167 30L53.7292 30C55.75 30.0208 57.3958 31.0613 58.3542 32.9342C58.6823 33.5898 59.1822 34.6457 59.664 35.6634C59.7635 35.8734 59.8621 36.0818 59.9583 36.2847L60.1667 36.7425ZM58.6458 44.7337C58.6458 45.7742 59.4791 46.6066 60.5208 46.6066C61.5624 46.6066 62.4166 45.7742 62.4166 44.7337C62.4166 43.6932 61.5624 42.84 60.5208 42.84C59.4791 42.84 58.6458 43.6932 58.6458 44.7337ZM45.2292 47.9592C46.2084 46.9812 47.4792 46.4609 48.8334 46.4609C50.1876 46.4609 51.4585 46.9812 52.4168 47.9384C53.3752 48.8957 53.896 50.1651 53.896 51.5178C53.8752 54.3064 51.6251 56.5747 48.8334 56.5747C47.4792 56.5747 46.2084 56.0544 45.2501 55.0971C44.2917 54.1399 43.7709 52.8704 43.7709 51.5178L43.7709 51.497C43.75 50.1859 44.2709 48.9165 45.2292 47.9592ZM54.6041 57.3029C53.1249 58.7805 51.0833 59.6961 48.8333 59.6961C46.6458 59.6961 44.6042 58.8429 43.0417 57.3029C41.5 55.7422 40.6459 53.7028 40.6459 51.5177C40.625 49.3534 41.4792 47.314 43.0209 45.7533C44.5833 44.1925 46.6458 43.3393 48.8333 43.3393C51.0208 43.3393 53.0833 44.1925 54.6249 45.7325C56.1666 47.2932 57.0208 49.3534 57.0208 51.5177C56.9999 53.786 56.0833 55.8254 54.6041 57.3029Z" fill="#AA6B0B"/>
<defs>
<filter id="filter0_ii" x="0" y="0" width="102" height="102" filterUnits="userSpaceOnUse" color-interpolation-filters="sRGB">
<feFlood flood-opacity="0" result="BackgroundImageFix"/>
<feBlend mode="normal" in="SourceGraphic" in2="BackgroundImageFix" result="shape"/>
<feColorMatrix in="SourceAlpha" type="matrix" values="0 0 0 0 0 0 0 0 0 0 0 0 0 0 0 0 0 0 127 0" result="hardAlpha"/>
<feOffset dy="4"/>
<feGaussianBlur stdDeviation="2"/>
<feComposite in2="hardAlpha" operator="arithmetic" k2="-1" k3="1"/>
<feColorMatrix type="matrix" values="0 0 0 0 1 0 0 0 0 1 0 0 0 0 1 0 0 0 0.4 0"/>
<feBlend mode="normal" in2="shape" result="effect1_innerShadow"/>
<feColorMatrix in="SourceAlpha" type="matrix" values="0 0 0 0 0 0 0 0 0 0 0 0 0 0 0 0 0 0 127 0" result="hardAlpha"/>
<feOffset dx="9" dy="12"/>
<feGaussianBlur stdDeviation="2"/>
<feComposite in2="hardAlpha" operator="arithmetic" k2="-1" k3="1"/>
<feColorMatrix type="matrix" values="0 0 0 0 1 0 0 0 0 1 0 0 0 0 1 0 0 0 0.25 0"/>
<feBlend mode="normal" in2="effect1_innerShadow" result="effect2_innerShadow"/>
</filter>
</defs>
</svg>
