<svg width="107" height="107" viewBox="0 0 107 107" fill="none" xmlns="http://www.w3.org/2000/svg">
<g filter="url(#filter0_dii)">
<rect x="4.5" y="0.5" width="98" height="98" rx="10" fill="#FFC567"/>
</g>
<path d="M60.8944 47.9434C60.4805 47.9434 60.0835 47.779 59.7909 47.4863C59.4982 47.1937 59.3338 46.7967 59.3338 46.3828V46.3828C59.3338 45.9689 59.4982 45.5719 59.7909 45.2793C60.0835 44.9866 60.4805 44.8222 60.8944 44.8222L63.4923 44.8222C63.8676 44.8196 64.2266 44.6688 64.4911 44.4025C64.7556 44.1362 64.904 43.7761 64.904 43.4008C64.904 43.0238 64.7543 42.6623 64.4877 42.3957C64.2212 42.1292 63.8596 41.9794 63.4826 41.9794L60.9592 41.9794C60.5455 41.9857 60.1453 41.8318 59.8424 41.5499C59.5395 41.268 59.3572 40.8799 59.3338 40.4668C59.3273 40.2578 59.3629 40.0497 59.4385 39.8548C59.514 39.6599 59.628 39.4821 59.7735 39.3321C59.9191 39.182 60.0933 39.0628 60.2859 38.9814C60.4784 38.8999 60.6853 38.858 60.8944 38.8581L63.4923 38.8581C63.8676 38.8556 64.2266 38.7047 64.4911 38.4384C64.7556 38.1722 64.904 37.8121 64.904 37.4368V37.4368C64.904 37.0598 64.7543 36.6983 64.4877 36.4317C64.2212 36.1651 63.8596 36.0154 63.4826 36.0154L60.9592 36.0154C60.5455 36.0216 60.1453 35.8677 59.8424 35.5858C59.5395 35.3039 59.3572 34.9159 59.3338 34.5028C59.3273 34.2938 59.3629 34.0857 59.4385 33.8908C59.514 33.6959 59.628 33.5181 59.7735 33.3681C59.9191 33.218 60.0933 33.0987 60.2859 33.0173C60.4784 32.9359 60.6853 32.894 60.8944 32.8941L63.3866 32.8941C63.5915 32.8946 63.7941 32.8508 63.9806 32.7658C64.167 32.6809 64.333 32.5566 64.467 32.4016C64.601 32.2466 64.7 32.0645 64.7572 31.8677C64.8144 31.6709 64.8284 31.4641 64.7984 31.2614C64.0061 25.7008 59.2521 21.2109 53.509 21.2109C52.0105 21.2097 50.5264 21.5037 49.1417 22.0763C47.7569 22.6489 46.4985 23.4887 45.4385 24.5479C44.3784 25.607 43.5375 26.8647 42.9638 28.249C42.39 29.6333 42.0947 31.1171 42.0947 32.6156L42.0947 48.222C42.0947 49.7204 42.39 51.2042 42.9638 52.5886C43.5375 53.9729 44.3784 55.2305 45.4385 56.2897C46.4985 57.3488 47.7569 58.1887 49.1417 58.7612C50.5264 59.3338 52.0105 59.6279 53.509 59.6266V59.6266C59.2521 59.6266 64.0061 55.1368 64.7936 49.5689C64.8212 49.3665 64.8054 49.1605 64.7473 48.9646C64.6892 48.7688 64.5901 48.5875 64.4566 48.4329C64.3231 48.2782 64.1582 48.1538 63.9729 48.0677C63.7876 47.9817 63.5861 47.9361 63.3818 47.9338L60.8944 47.9434Z" fill="#AA6B0B"/>
<path d="M69.7166 49.6504C69.7166 53.9512 68.0081 58.0759 64.967 61.117C61.9259 64.1581 57.8012 65.8666 53.5004 65.8666C49.1996 65.8666 45.0749 64.1581 42.0338 61.117C38.9927 58.0759 37.2842 53.9512 37.2842 49.6504" stroke="#AA6B0B" stroke-width="6" stroke-linecap="round" stroke-linejoin="round"/>
<path d="M53.5002 66.6211L53.5 75.7094" stroke="#AA6B0B" stroke-width="6" stroke-linecap="round" stroke-linejoin="round"/>
<defs>
<filter id="filter0_dii" x="0.5" y="0.5" width="106" height="106" filterUnits="userSpaceOnUse" color-interpolation-filters="sRGB">
<feFlood flood-opacity="0" result="BackgroundImageFix"/>
<feColorMatrix in="SourceAlpha" type="matrix" values="0 0 0 0 0 0 0 0 0 0 0 0 0 0 0 0 0 0 127 0"/>
<feOffset dy="4"/>
<feGaussianBlur stdDeviation="2"/>
<feColorMatrix type="matrix" values="0 0 0 0 0 0 0 0 0 0 0 0 0 0 0 0 0 0 0.25 0"/>
<feBlend mode="normal" in2="BackgroundImageFix" result="effect1_dropShadow"/>
<feBlend mode="normal" in="SourceGraphic" in2="effect1_dropShadow" result="shape"/>
<feColorMatrix in="SourceAlpha" type="matrix" values="0 0 0 0 0 0 0 0 0 0 0 0 0 0 0 0 0 0 127 0" result="hardAlpha"/>
<feOffset dy="4"/>
<feGaussianBlur stdDeviation="2"/>
<feComposite in2="hardAlpha" operator="arithmetic" k2="-1" k3="1"/>
<feColorMatrix type="matrix" values="0 0 0 0 1 0 0 0 0 1 0 0 0 0 1 0 0 0 0.4 0"/>
<feBlend mode="normal" in2="shape" result="effect2_innerShadow"/>
<feColorMatrix in="SourceAlpha" type="matrix" values="0 0 0 0 0 0 0 0 0 0 0 0 0 0 0 0 0 0 127 0" result="hardAlpha"/>
<feOffset dx="9" dy="12"/>
<feGaussianBlur stdDeviation="2"/>
<feComposite in2="hardAlpha" operator="arithmetic" k2="-1" k3="1"/>
<feColorMatrix type="matrix" values="0 0 0 0 1 0 0 0 0 1 0 0 0 0 1 0 0 0 0.25 0"/>
<feBlend mode="normal" in2="effect2_innerShadow" result="effect3_innerShadow"/>
</filter>
</defs>
</svg>
