<svg width="50" height="50" viewBox="0 0 50 50" fill="none" xmlns="http://www.w3.org/2000/svg">
<path fill-rule="evenodd" clip-rule="evenodd" d="M30.8896 0.0198244C30.3319 -0.0601207 29.7717 0.104766 29.3261 0.459522C28.8679 0.819275 28.5816 1.33892 28.5194 1.92102C28.3874 3.09771 29.2364 4.16198 30.4116 4.29439C38.5157 5.19877 44.8148 11.5119 45.7261 19.6413C45.8481 20.7306 46.7618 21.5525 47.8523 21.5525C47.9345 21.5525 48.0142 21.5475 48.0963 21.5375C48.6665 21.4751 49.1744 21.1928 49.5329 20.7431C49.8889 20.2934 50.0508 19.7338 49.986 19.1617C48.8507 9.01864 41.0005 1.14655 30.8896 0.0198244ZM31.0455 8.72484C29.8554 8.50499 28.7624 9.26447 28.5358 10.4262C28.3092 11.5879 29.0711 12.7221 30.2288 12.9494C33.7145 13.629 36.4059 16.3271 37.0881 19.8247V19.8272C37.2823 20.834 38.1687 21.566 39.1895 21.566C39.3264 21.566 39.4633 21.5535 39.6028 21.5285C40.7605 21.2962 41.5224 20.1645 41.2958 19.0003C40.2775 13.7764 36.2565 9.74164 31.0455 8.72484ZM35.0002 32.7264C36.1289 32.0756 37.4036 31.3405 39.0117 31.6826C40.4682 31.9899 45.4328 36.0196 46.7922 37.4162C47.6835 38.3305 48.179 39.2749 48.2562 40.2192C48.3906 43.9242 43.3563 48.1538 42.4401 48.6809C41.2226 49.5578 39.8059 50 38.215 50C36.5892 50 34.7766 49.5378 32.7998 48.616C22.0739 44.139 5.68882 28.0776 1.35665 17.4349C-0.440951 13.4726 -0.4534 10.2048 1.32677 7.74903C2.03635 6.59732 6.08221 1.78313 9.7048 1.93552C10.6683 2.01796 11.6045 2.51263 12.5232 3.41201C13.9125 4.77357 17.8413 9.75265 18.1451 11.2142C18.4812 12.838 17.7442 14.1296 17.0894 15.2639C16.9497 15.5077 16.7616 15.797 16.5554 16.114C15.773 17.3171 14.7316 18.9184 15.1001 19.9407C17.7417 26.4262 23.8441 32.0848 30.3324 34.743C31.3358 35.1077 32.9362 34.0588 34.1354 33.2729C34.4478 33.0682 34.733 32.8813 34.9733 32.7419L35.0002 32.7264Z" fill="#AA6B0B"/>
</svg>
